<?xml version="1.0" encoding="UTF-8"?>
<svg version="1.1" xmlns="http://www.w3.org/2000/svg" width="500" height="500">
<path d="M0 0 C3.41324699 0.0161175 6.8253133 0.00002662 10.23852539 -0.01904297 C28.16797688 -0.03714137 45.53163219 1.57203557 62.91235352 6.14111328 C63.90928223 6.39860352 64.90621094 6.65609375 65.93334961 6.92138672 C87.78913499 12.71482163 108.86619963 21.23527775 128.26782227 32.89501953 C130.83404236 34.49806695 130.83404236 34.49806695 133.84985352 35.39111328 C133.84985352 36.05111328 133.84985352 36.71111328 133.84985352 37.39111328 C134.43758545 37.51099609 135.02531738 37.63087891 135.63085938 37.75439453 C137.91938854 38.41106568 139.40062369 39.23578131 141.35375977 40.57861328 C142.00699219 41.02591797 142.66022461 41.47322266 143.33325195 41.93408203 C144.01935547 42.41490234 144.70545898 42.89572266 145.41235352 43.39111328 C146.12037109 43.88224609 146.82838867 44.37337891 147.55786133 44.87939453 C152.77602989 48.53944208 157.74530536 52.40217819 162.61547852 56.51611328 C164.81220092 58.41177484 164.81220092 58.41177484 167.14672852 60.01611328 C167.70875977 60.46986328 168.27079102 60.92361328 168.84985352 61.39111328 C168.84985352 62.05111328 168.84985352 62.71111328 168.84985352 63.39111328 C169.71271973 63.76719727 169.71271973 63.76719727 170.59301758 64.15087891 C173.15426547 65.55840155 174.89042744 67.17281354 176.95922852 69.23486328 C177.71333008 69.98638672 178.46743164 70.73791016 179.24438477 71.51220703 C180.02168945 72.29724609 180.79899414 73.08228516 181.59985352 73.89111328 C182.39262695 74.67615234 183.18540039 75.46119141 184.00219727 76.27001953 C184.75114258 77.02154297 185.50008789 77.77306641 186.27172852 78.54736328 C186.95847656 79.23636719 187.64522461 79.92537109 188.3527832 80.63525391 C189.84985352 82.39111328 189.84985352 82.39111328 189.84985352 84.39111328 C190.50985352 84.39111328 191.16985352 84.39111328 191.84985352 84.39111328 C193.64238297 86.45825583 195.31824365 88.53118453 196.97485352 90.70361328 C197.46912842 91.34443848 197.96340332 91.98526367 198.47265625 92.64550781 C199.93953122 94.55489443 201.39591143 96.47186864 202.84985352 98.39111328 C203.56012695 99.32052734 204.27040039 100.24994141 205.00219727 101.20751953 C224.0763372 126.75672537 237.55136816 155.66709656 245.84985352 186.39111328 C246.1626123 187.53870117 246.1626123 187.53870117 246.48168945 188.70947266 C251.63150233 207.97133599 253.35429417 227.14526128 253.2409668 247.03857422 C253.22486717 250.38827204 253.24092755 253.73676384 253.26000977 257.08642578 C253.30093883 298.5490901 241.41731556 337.62913588 221.73266602 373.91455078 C220.39195406 376.39013924 219.08241156 378.86112572 217.84985352 381.39111328 C217.18985352 381.39111328 216.52985352 381.39111328 215.84985352 381.39111328 C215.72852051 381.98029541 215.6071875 382.56947754 215.48217773 383.17651367 C214.83859419 385.43054699 214.04490717 386.89637605 212.73266602 388.82470703 C212.2955127 389.46778809 211.85835938 390.11086914 211.40795898 390.7734375 C210.93503418 391.45164551 210.46210938 392.12985352 209.97485352 392.82861328 C209.49032715 393.53002441 209.00580078 394.23143555 208.5065918 394.95410156 C204.32687287 400.90801358 199.76104325 406.44995369 194.96704102 411.91455078 C192.85053768 414.1886834 192.85053768 414.1886834 191.84985352 416.39111328 C191.18985352 416.39111328 190.52985352 416.39111328 189.84985352 416.39111328 C189.59913086 416.96635742 189.3484082 417.54160156 189.09008789 418.13427734 C187.68256525 420.69552524 186.06815326 422.4316872 184.00610352 424.50048828 C183.25458008 425.25458984 182.50305664 426.00869141 181.72875977 426.78564453 C180.9437207 427.56294922 180.15868164 428.34025391 179.34985352 429.14111328 C178.17229492 430.33027344 178.17229492 430.33027344 176.97094727 431.54345703 C176.21942383 432.29240234 175.46790039 433.04134766 174.69360352 433.81298828 C174.00459961 434.49973633 173.3155957 435.18648438 172.60571289 435.89404297 C170.84985352 437.39111328 170.84985352 437.39111328 168.84985352 437.39111328 C168.84985352 438.05111328 168.84985352 438.71111328 168.84985352 439.39111328 C166.71943381 441.22231673 164.58220803 442.94226324 162.34985352 444.64111328 C161.70564453 445.13836914 161.06143555 445.635625 160.39770508 446.14794922 C158.55320722 447.56872364 156.7024972 448.98098677 154.84985352 450.39111328 C154.07125977 450.98923828 153.29266602 451.58736328 152.49047852 452.20361328 C150.62544625 453.62165434 148.74363839 455.01173677 146.84985352 456.39111328 C145.56401367 457.33857422 145.56401367 457.33857422 144.25219727 458.30517578 C143.35629883 458.95228516 142.46040039 459.59939453 141.53735352 460.26611328 C140.7162207 460.86166016 139.89508789 461.45720703 139.04907227 462.07080078 C136.84985352 463.39111328 136.84985352 463.39111328 133.84985352 463.39111328 C133.84985352 464.05111328 133.84985352 464.71111328 133.84985352 465.39111328 C97.94709477 485.32599855 58.60164989 500.51454199 17.02563477 500.55908203 C15.36893013 500.56407463 15.36893013 500.56407463 13.67875671 500.56916809 C11.35338758 500.57420364 9.0280113 500.57657747 6.70263672 500.57641602 C3.18973559 500.57859629 -0.32284786 500.59677155 -3.83569336 500.61572266 C-15.46260602 500.64486085 -26.67480103 500.4254454 -38.15014648 498.39111328 C-39.53530965 498.18755777 -40.92067912 497.98539241 -42.30639648 497.78564453 C-53.3596993 495.86164673 -63.91519369 492.58267195 -74.59643555 489.18847656 C-76.72951949 488.52244863 -78.86451995 487.89159086 -81.01733398 487.29345703 C-88.58985492 485.15500674 -95.30675846 482.03664331 -102.26293945 478.375 C-105.65989379 476.60401346 -109.09520601 474.9095563 -112.52514648 473.20361328 C-113.80395283 472.56461149 -115.08260322 471.92529748 -116.36108398 471.28564453 C-116.97306641 470.97965332 -117.58504883 470.67366211 -118.21557617 470.35839844 C-121.52709961 468.70263672 -124.83862305 467.046875 -128.15014648 465.39111328 C-128.15014648 464.73111328 -128.15014648 464.07111328 -128.15014648 463.39111328 C-128.69799805 463.29701172 -129.24584961 463.20291016 -129.81030273 463.10595703 C-139.56259601 460.12654189 -149.23437756 450.69288776 -157.15014648 444.39111328 C-157.71636719 443.94815918 -158.28258789 443.50520508 -158.8659668 443.04882812 C-160.33227512 441.87586736 -161.74613026 440.63796351 -163.15014648 439.39111328 C-163.15014648 438.73111328 -163.15014648 438.07111328 -163.15014648 437.39111328 C-163.73151367 437.12556641 -164.31288086 436.86001953 -164.91186523 436.58642578 C-171.02234683 433.32323666 -175.77291165 427.8923487 -180.18920898 422.65673828 C-181.6199271 421.00371735 -183.1015719 419.3943819 -184.61108398 417.81298828 C-191.86278981 410.2080475 -197.89503579 402.0478727 -203.78979492 393.35742188 C-205.14985559 391.39153375 -206.57196748 389.48242663 -208.00170898 387.56689453 C-210.15014648 384.39111328 -210.15014648 384.39111328 -210.15014648 381.39111328 C-210.81014648 381.39111328 -211.47014648 381.39111328 -212.15014648 381.39111328 C-214.05101742 377.78958255 -215.94488089 374.18440941 -217.83764648 370.57861328 C-218.63332031 369.07137695 -218.63332031 369.07137695 -219.44506836 367.53369141 C-226.31889456 354.41859969 -232.42709654 340.98469437 -236.47436523 326.70751953 C-236.96773349 325.01637862 -237.50983903 323.33923927 -238.07983398 321.67236328 C-239.41038689 317.59329597 -240.51848678 313.48277869 -241.58764648 309.32861328 C-241.79196289 308.57773437 -241.9962793 307.82685547 -242.20678711 307.05322266 C-246.6987806 289.51905493 -247.63972709 271.9162546 -247.54125977 253.88916016 C-247.52516265 250.39462268 -247.54121511 246.90124128 -247.56030273 243.40673828 C-247.57386102 229.48691891 -246.66756003 216.08582737 -244.15014648 202.39111328 C-243.82965332 200.63275146 -243.82965332 200.63275146 -243.50268555 198.83886719 C-242.92707995 195.94091084 -242.28513187 193.07448132 -241.58764648 190.20361328 C-241.34224121 189.18460938 -241.09683594 188.16560547 -240.84399414 187.11572266 C-236.03129584 168.18789065 -228.22073242 149.78281783 -219.02514648 132.57861328 C-218.1472277 130.92643667 -217.26961233 129.27409879 -216.39233398 127.62158203 C-216.00932129 126.90381592 -215.62630859 126.1860498 -215.23168945 125.4465332 C-214.17649868 123.44119435 -213.15607794 121.42154108 -212.15014648 119.39111328 C-211.49014648 119.39111328 -210.83014648 119.39111328 -210.15014648 119.39111328 C-210.00899414 118.56933594 -210.00899414 118.56933594 -209.86499023 117.73095703 C-206.88557509 107.97866376 -197.45192096 98.3068822 -191.15014648 90.39111328 C-190.48571533 89.54178223 -190.48571533 89.54178223 -189.80786133 88.67529297 C-188.63490057 87.20898464 -187.39699671 85.79512951 -186.15014648 84.39111328 C-185.49014648 84.39111328 -184.83014648 84.39111328 -184.15014648 84.39111328 C-183.89104492 83.81490234 -183.63194336 83.23869141 -183.36499023 82.64501953 C-182.05415266 80.21301542 -180.55416815 78.38398907 -178.71264648 76.32861328 C-177.81739258 75.32121094 -177.81739258 75.32121094 -176.90405273 74.29345703 C-176.32526367 73.66568359 -175.74647461 73.03791016 -175.15014648 72.39111328 C-174.62291992 71.81490234 -174.09569336 71.23869141 -173.55249023 70.64501953 C-172.15014648 69.39111328 -172.15014648 69.39111328 -170.15014648 69.39111328 C-170.15014648 68.73111328 -170.15014648 68.07111328 -170.15014648 67.39111328 C-167.73029832 64.80891109 -164.87556343 62.64084945 -162.15014648 60.39111328 C-161.32957764 59.71218018 -161.32957764 59.71218018 -160.49243164 59.01953125 C-153.11605146 52.94190866 -145.68305014 47.1861343 -137.63842773 42.01220703 C-135.1532688 40.45041528 -135.1532688 40.45041528 -133.00561523 38.67626953 C-131.15014648 37.39111328 -131.15014648 37.39111328 -128.15014648 37.39111328 C-128.15014648 36.73111328 -128.15014648 36.07111328 -128.15014648 35.39111328 C-124.7179284 33.54776125 -121.27855522 31.71818419 -117.83764648 29.89111328 C-116.86118164 29.36646484 -115.8847168 28.84181641 -114.87866211 28.30126953 C-113.94086914 27.80498047 -113.00307617 27.30869141 -112.03686523 26.79736328 C-111.17279053 26.33652344 -110.30871582 25.87568359 -109.41845703 25.40087891 C-107.15014648 24.39111328 -107.15014648 24.39111328 -104.15014648 24.39111328 C-104.15014648 23.73111328 -104.15014648 23.07111328 -104.15014648 22.39111328 C-96.29001702 19.32279032 -88.40635369 16.38215514 -80.43920898 13.60205078 C-77.13232911 12.43214451 -77.13232911 12.43214451 -73.95874023 10.93017578 C-69.0177444 8.78589278 -63.81122089 7.64086566 -58.58764648 6.39111328 C-57.12294922 6.01986328 -57.12294922 6.01986328 -55.62866211 5.64111328 C-37.23071993 1.20062944 -18.88339419 -0.10569822 0 0 Z M-43.82202148 71.72705078 C-45.3580797 73.29679321 -45.3580797 73.29679321 -45.15014648 75.39111328 C-45.81014648 75.39111328 -46.47014648 75.39111328 -47.15014648 75.39111328 C-55.68884006 86.25854146 -59.15014648 99.8124528 -59.15014648 113.39111328 C-59.15014648 114.39916016 -59.15014648 115.40720703 -59.15014648 116.44580078 C-58.68008408 127.52164613 -54.36516233 137.73367653 -49.15014648 147.39111328 C-48.49014648 147.39111328 -47.83014648 147.39111328 -47.15014648 147.39111328 C-46.91038086 148.11814453 -46.67061523 148.84517578 -46.42358398 149.59423828 C-44.96866936 152.78969494 -43.26409028 154.67697623 -40.77514648 157.14111328 C-40.00428711 157.91970703 -39.23342773 158.69830078 -38.43920898 159.50048828 C-36.21964335 161.33371314 -34.95789855 162.00648971 -32.15014648 162.39111328 C-32.15014648 163.05111328 -32.15014648 163.71111328 -32.15014648 164.39111328 C-29.94430408 165.5212298 -27.73569622 166.64527116 -25.52514648 167.76611328 C-24.59895508 168.24177734 -24.59895508 168.24177734 -23.65405273 168.72705078 C-12.61634691 174.30399688 -1.39255838 176.32314794 10.84985352 174.39111328 C11.5859082 174.27767578 12.32196289 174.16423828 13.08032227 174.04736328 C21.57147856 172.43883823 30.72884347 169.33625914 37.84985352 164.39111328 C37.84985352 163.73111328 37.84985352 163.07111328 37.84985352 162.39111328 C38.59493164 162.13201172 39.34000977 161.87291016 40.10766602 161.60595703 C50.41531985 157.03946081 56.97169351 144.38596322 61.07641602 134.42236328 C67.17655183 118.40180458 65.52572416 101.87983962 58.84985352 86.39111328 C56.97803842 82.64308916 54.98886203 78.9928802 52.84985352 75.39111328 C52.18985352 75.39111328 51.52985352 75.39111328 50.84985352 75.39111328 C50.62297852 74.83423828 50.39610352 74.27736328 50.16235352 73.70361328 C48.47435315 70.72951741 46.38308835 68.67102463 43.84985352 66.39111328 C43.18985352 66.39111328 42.52985352 66.39111328 41.84985352 66.39111328 C41.84985352 65.73111328 41.84985352 65.07111328 41.84985352 64.39111328 C28.59731316 52.97920353 11.3812455 50.16705409 -5.46557617 51.10986328 C-20.40059144 52.67453567 -33.52271174 61.21840547 -43.82202148 71.72705078 Z M-174.15014648 166.39111328 C-174.15014648 167.05111328 -174.15014648 167.71111328 -174.15014648 168.39111328 C-174.81014648 168.39111328 -175.47014648 168.39111328 -176.15014648 168.39111328 C-187.99378093 183.73532934 -191.3060359 201.58444846 -188.87768555 220.51513672 C-186.67504273 232.65151146 -179.36176092 245.1504528 -170.15014648 253.39111328 C-169.49014648 253.39111328 -168.83014648 253.39111328 -168.15014648 253.39111328 C-168.15014648 254.05111328 -168.15014648 254.71111328 -168.15014648 255.39111328 C-153.7647943 267.13267101 -138.24115699 270.08621783 -120.15014648 269.39111328 C-116.98809407 269.05625145 -114.16535765 268.38925215 -111.15014648 267.39111328 C-109.62647461 266.89611328 -109.62647461 266.89611328 -108.07202148 266.39111328 C-100.53194489 263.72578388 -94.47629059 260.23952874 -88.15014648 255.39111328 C-87.16014648 254.73111328 -86.17014648 254.07111328 -85.15014648 253.39111328 C-85.15014648 252.73111328 -85.15014648 252.07111328 -85.15014648 251.39111328 C-84.49014648 251.39111328 -83.83014648 251.39111328 -83.15014648 251.39111328 C-71.25753043 237.78424626 -65.41109489 222.08912562 -65.87280273 204.08251953 C-67.28550414 185.27966284 -75.9623412 171.63718411 -89.47045898 159.26611328 C-94.84583012 154.79627061 -100.64107802 151.87987475 -107.15014648 149.39111328 C-107.96741211 149.07013672 -108.78467773 148.74916016 -109.62670898 148.41845703 C-132.22737815 140.89656249 -158.30846843 149.20924988 -174.15014648 166.39111328 Z M96.84985352 157.39111328 C96.84985352 158.05111328 96.84985352 158.71111328 96.84985352 159.39111328 C96.27235352 159.65923828 95.69485352 159.92736328 95.09985352 160.20361328 C92.79435309 161.42040517 90.82929159 162.69445207 88.84985352 164.39111328 C88.84985352 165.05111328 88.84985352 165.71111328 88.84985352 166.39111328 C88.18985352 166.39111328 87.52985352 166.39111328 86.84985352 166.39111328 C85.27241371 168.5492425 83.82970509 170.69363589 82.41235352 172.95361328 C82.01725586 173.56269531 81.6221582 174.17177734 81.21508789 174.79931641 C72.47439921 188.54299495 69.55628719 204.40501189 72.50610352 220.39111328 C75.60012128 233.40732595 82.02524313 244.27474652 91.84985352 253.39111328 C93.99226626 254.6497067 93.99226626 254.6497067 95.84985352 255.39111328 C95.84985352 256.05111328 95.84985352 256.71111328 95.84985352 257.39111328 C98.66495345 259.66846338 98.66495345 259.66846338 101.84985352 259.39111328 C101.84985352 260.05111328 101.84985352 260.71111328 101.84985352 261.39111328 C120.24820427 269.96828036 136.87276396 272.11263922 156.34985352 265.20361328 C162.53590175 262.73794783 167.62046097 259.47474004 172.84985352 255.39111328 C173.79860352 254.68986328 174.74735352 253.98861328 175.72485352 253.26611328 C178.10994226 251.16162321 180.00821977 248.98304225 181.84985352 246.39111328 C181.84985352 245.73111328 181.84985352 245.07111328 181.84985352 244.39111328 C182.50985352 244.39111328 183.16985352 244.39111328 183.84985352 244.39111328 C193.92361723 227.73997807 197.4914109 211.80537753 194.18579102 192.51611328 C189.75142411 176.47527299 179.14703029 162.79742324 164.84985352 154.39111328 C161.2612011 152.47959596 157.64065553 150.85904087 153.84985352 149.39111328 C152.62588867 148.90964844 152.62588867 148.90964844 151.37719727 148.41845703 C132.5701944 142.16883475 113.19322554 147.31500892 96.84985352 157.39111328 Z M-18.15014648 219.39111328 C-18.15014648 220.05111328 -18.15014648 220.71111328 -18.15014648 221.39111328 C-18.74827148 221.65537109 -19.34639648 221.91962891 -19.96264648 222.19189453 C-26.03635469 225.52158814 -30.50091001 232.91193695 -32.83764648 239.25830078 C-35.93638335 249.97476578 -33.86033661 259.18284846 -29.02514648 268.95361328 C-23.72693534 278.05444443 -15.3766419 283.08500387 -5.77514648 286.64111328 C4.26421116 288.71822176 13.50102762 287.19646545 22.36547852 281.88330078 C31.7288548 275.03593377 37.33403858 266.7346102 39.84985352 255.39111328 C41.35355405 245.06673643 37.40692138 235.71134011 31.47875977 227.39111328 C25.00644127 219.44428578 15.83941998 214.31137748 5.61157227 213.13330078 C-2.85795886 212.72806006 -10.71062472 215.47743122 -18.15014648 219.39111328 Z M-116.15014648 312.39111328 C-116.15014648 313.05111328 -116.15014648 313.71111328 -116.15014648 314.39111328 C-116.74311523 314.66310547 -117.33608398 314.93509766 -117.94702148 315.21533203 C-126.36512679 319.70797334 -132.79420609 329.64556697 -135.87475586 338.46582031 C-137.23094753 343.05496428 -138.231104 347.69724656 -139.15014648 352.39111328 C-139.43825195 353.75429688 -139.43825195 353.75429688 -139.73217773 355.14501953 C-142.3509642 369.21793744 -136.55316967 385.14121558 -128.77514648 396.70361328 C-125.64936689 400.93743729 -122.2845295 405.09669726 -118.15014648 408.39111328 C-117.49014648 408.39111328 -116.83014648 408.39111328 -116.15014648 408.39111328 C-116.15014648 409.05111328 -116.15014648 409.71111328 -116.15014648 410.39111328 C-102.97328709 420.73889842 -86.68143422 424.79618601 -70.15014648 423.39111328 C-52.53733026 420.1097729 -37.92030675 411.92299273 -27.15014648 397.39111328 C-17.73131565 382.57908688 -13.36160166 366.68335537 -16.5456543 349.22216797 C-19.41563296 337.28788797 -25.91287594 324.67784675 -35.15014648 316.39111328 C-35.81014648 316.39111328 -36.47014648 316.39111328 -37.15014648 316.39111328 C-37.15014648 315.73111328 -37.15014648 315.07111328 -37.15014648 314.39111328 C-59.72927262 297.53810559 -93.13785245 292.11413069 -116.15014648 312.39111328 Z M43.84985352 314.39111328 C43.21821289 314.88095703 42.58657227 315.37080078 41.93579102 315.87548828 C39.1369434 318.1090514 36.74547228 320.33706083 34.84985352 323.39111328 C34.84985352 324.05111328 34.84985352 324.71111328 34.84985352 325.39111328 C34.18985352 325.39111328 33.52985352 325.39111328 32.84985352 325.39111328 C28.73093999 333.22269133 24.9561152 340.73923838 22.84985352 349.39111328 C22.6680957 349.99052734 22.48633789 350.58994141 22.29907227 351.20751953 C19.15454792 366.49264223 23.50839693 382.2269636 31.66235352 395.17236328 C40.32161055 407.91384149 51.90864517 417.23056142 66.84985352 421.39111328 C67.58461914 421.61412109 68.31938477 421.83712891 69.07641602 422.06689453 C84.97023109 426.31487783 102.11131435 421.94331642 116.16625977 414.09814453 C119.09931093 412.37684988 119.09931093 412.37684988 121.84985352 410.39111328 C121.84985352 409.73111328 121.84985352 409.07111328 121.84985352 408.39111328 C122.44282227 408.11912109 123.03579102 407.84712891 123.64672852 407.56689453 C132.85652184 402.65173887 139.33439209 391.28680294 142.72485352 381.76611328 C143.13467918 380.31718125 143.50883152 378.85776427 143.84985352 377.39111328 C144.05223633 376.53001953 144.25461914 375.66892578 144.46313477 374.78173828 C148.11582816 357.18917417 144.11421485 340.61113547 134.84985352 325.39111328 C134.18985352 325.39111328 133.52985352 325.39111328 132.84985352 325.39111328 C132.60106445 324.82005859 132.35227539 324.24900391 132.09594727 323.66064453 C126.45783118 313.39185004 114.28787577 306.15440798 103.59594727 302.16845703 C81.70657325 295.97217619 61.4422066 300.38555063 43.84985352 314.39111328 Z " fill="#39B6FE" transform="translate(247.150146484375,-0.39111328125)"/>
<path d="M0 0 C0.66 0.33 1.32 0.66 2 1 C0.625 2.5 0.625 2.5 -1 4 C-1.66 4 -2.32 4 -3 4 C-3.33 4.99 -3.66 5.98 -4 7 C-4.66 7 -5.32 7 -6 7 C-6.309375 7.61875 -6.61875 8.2375 -6.9375 8.875 C-7.625 10.25 -8.3125 11.625 -9 13 C-9.66 13 -10.32 13 -11 13 C-11.268125 13.68578125 -11.53625 14.3715625 -11.8125 15.078125 C-13.13661975 18.3361565 -14.5717029 21.53633152 -16 24.75 C-21.54067012 37.65599198 -22.24663201 50.16074681 -20 64 C-20.66 64 -21.32 64 -22 64 C-22 62.68 -22 61.36 -22 60 C-22.66 60 -23.32 60 -24 60 C-24.05880804 56.83341337 -24.09386406 53.66697007 -24.125 50.5 C-24.14175781 49.613125 -24.15851563 48.72625 -24.17578125 47.8125 C-24.23654203 39.5490339 -22.71619025 33.43238049 -19 26 C-18.29241674 22.7633037 -18.29241674 22.7633037 -18 20 C-17.34 20 -16.68 20 -16 20 C-16 19.01 -16 18.02 -16 17 C-15.34 17 -14.68 17 -14 17 C-14.33 15.35 -14.66 13.7 -15 12 C-14.071875 11.62875 -13.14375 11.2575 -12.1875 10.875 C-8.79380259 9.26784406 -8.79380259 9.26784406 -7.5 6 C-5.62114344 2.24228689 -3.88994091 1.40699991 0 0 Z " fill="#A0D9F3" transform="translate(291,312)"/>
<path d="M0 0 C1.62228516 -0.01836914 1.62228516 -0.01836914 3.27734375 -0.03710938 C9.0604962 -0.04770123 13.92045575 0.24103441 19.375 2.1875 C20.70630115 2.52885927 22.03858148 2.86675956 23.375 3.1875 C23.375 3.8475 23.375 4.5075 23.375 5.1875 C24.695 5.8475 26.015 6.5075 27.375 7.1875 C23.67509474 6.70067036 20.30301085 5.85621951 16.77734375 4.6796875 C11.5594278 3.10356099 6.74639517 2.61264673 1.3125 2.625 C0.41362061 2.62306641 -0.48525879 2.62113281 -1.41137695 2.61914062 C-9.39250708 2.8049611 -16.1274909 4.83083103 -23.44921875 7.875 C-26.625 9.1875 -26.625 9.1875 -28.625 9.1875 C-28.625 8.1975 -28.625 7.2075 -28.625 6.1875 C-26.315 5.5275 -24.005 4.8675 -21.625 4.1875 C-21.625 3.5275 -21.625 2.8675 -21.625 2.1875 C-20.66787109 2.09662109 -20.66787109 2.09662109 -19.69140625 2.00390625 C-18.86511719 1.92011719 -18.03882813 1.83632813 -17.1875 1.75 C-16.36378906 1.66878906 -15.54007813 1.58757813 -14.69140625 1.50390625 C-4.8882244 0.00285194 -4.8882244 0.00285194 0 0 Z " fill="#76C7F1" transform="translate(248.625,48.8125)"/>
<path d="M0 0 C3.96604668 3.96604668 4.75871238 7.54102404 5.60546875 12.890625 C5.79043052 14.97878152 5.79043052 14.97878152 7 16 C7.08631874 17.34267413 7.10706473 18.68974322 7.09765625 20.03515625 C7.09443359 20.84404297 7.09121094 21.65292969 7.08789062 22.48632812 C7.07951172 23.33646484 7.07113281 24.18660156 7.0625 25.0625 C7.05798828 25.91650391 7.05347656 26.77050781 7.04882812 27.65039062 C7.03700373 29.76695663 7.01906769 31.88348685 7 34 C6.34 34 5.68 34 5 34 C5 36.64 5 39.28 5 42 C4.01 42.495 4.01 42.495 3 43 C2.17195931 45.48412207 2 47.35220307 2 50 C0.68 50.66 -0.64 51.32 -2 52 C-1.80664062 51.35933594 -1.61328125 50.71867187 -1.4140625 50.05859375 C-1.15367187 49.19363281 -0.89328125 48.32867187 -0.625 47.4375 C-0.36976563 46.59058594 -0.11453125 45.74367187 0.1484375 44.87109375 C0.42945313 43.92363281 0.71046875 42.97617188 1 42 C1.35707031 40.95585937 1.71414063 39.91171875 2.08203125 38.8359375 C3.26472367 33.893793 3.32975526 29.2501921 3.3125 24.1875 C3.32861328 23.25357422 3.34472656 22.31964844 3.36132812 21.35742188 C3.36538323 15.51401875 2.56674463 10.61120534 0.64526367 5.0871582 C0 3 0 3 0 0 Z " fill="#7FCAF2" transform="translate(438,183)"/>
<path d="M0 0 C4.29 0 8.58 0 13 0 C13 0.66 13 1.32 13 2 C13.63526611 1.97679687 14.27053223 1.95359375 14.92504883 1.9296875 C22.68905686 1.77355699 30.04045217 2.7290701 37.6875 4 C38.87794922 4.19078125 40.06839844 4.3815625 41.29492188 4.578125 C44.19793807 5.04447298 47.09945705 5.5185502 50 6 C50 6.33 50 6.66 50 7 C39.13066767 7.23947121 28.75835824 6.80412798 18 5 C17.28263672 4.88221191 16.56527344 4.76442383 15.82617188 4.64306641 C13.61081866 4.27496362 11.39886178 3.89132322 9.1875 3.5 C8.49906006 3.38164795 7.81062012 3.2632959 7.10131836 3.14135742 C2.23494178 2.23494178 2.23494178 2.23494178 0 0 Z " fill="#95D6F7" transform="translate(191,493)"/>
<path d="M0 0 C1.78019614 3.5085419 3.45951808 7.06070778 5.125 10.625 C5.66382813 11.77226562 6.20265625 12.91953125 6.7578125 14.1015625 C8 17 8 17 8 19 C8.66 19 9.32 19 10 19 C11.26171875 20.5390625 11.26171875 20.5390625 12.6875 22.625 C16.00720107 27.2171172 19.86911103 31.43455552 25 34 C25 34.66 25 35.32 25 36 C26.485 36.495 26.485 36.495 28 37 C26.68 37.66 25.36 38.32 24 39 C24 38.34 24 37.68 24 37 C22.68 37 21.36 37 20 37 C19.9175 36.38125 19.835 35.7625 19.75 35.125 C18.76174558 32.32494581 17.59640015 32.25886068 15 31 C14.71125 30.38125 14.4225 29.7625 14.125 29.125 C12.49618454 26.04834858 9.86999691 24.87173711 7 23 C7 22.34 7 21.68 7 21 C6.34 20.67 5.68 20.34 5 20 C3.96484375 17.78515625 3.96484375 17.78515625 2.9375 15.0625 C1.58576094 11.47975239 1.58576094 11.47975239 0 8 C-0.13415472 5.3276379 -0.04318541 2.67749512 0 0 Z " fill="#8DD4F5" transform="translate(190,128)"/>
<path d="M0 0 C0.680625 0.680625 1.36125 1.36125 2.0625 2.0625 C2.51367188 2.51238281 2.96484375 2.96226562 3.4296875 3.42578125 C4.56501192 4.56392986 5.69449869 5.70791175 6.8203125 6.85546875 C7.43648438 7.48066406 8.05265625 8.10585937 8.6875 8.75 C9.26886719 9.34296875 9.85023438 9.9359375 10.44921875 10.546875 C11.95513974 12.09641804 11.95513974 12.09641804 14 13 C14 13.66 14 14.32 14 15 C15.98 15.66 17.96 16.32 20 17 C20 17.66 20 18.32 20 19 C20.52078125 19.11214844 21.0415625 19.22429687 21.578125 19.33984375 C24.72857803 20.19859627 27.70829519 21.37623512 30.75 22.5625 C31.92046875 23.01753906 33.0909375 23.47257812 34.296875 23.94140625 C35.18890625 24.29074219 36.0809375 24.64007813 37 25 C37 25.33 37 25.66 37 26 C31.96659302 26.29038886 29.90237698 26.0351821 26 23 C24.37601473 22.2817496 22.72799658 21.61590012 21.0625 21 C17.44863519 19.61822816 14.31088618 18.00659769 11 16 C10.01 16 9.02 16 8 16 C8.33 14.68 8.66 13.36 9 12 C7.68 11.67 6.36 11.34 5 11 C5 11.66 5 12.32 5 13 C4.34 13 3.68 13 3 13 C3.33 11.02 3.66 9.04 4 7 C3.34 7 2.68 7 2 7 C0 4 0 4 0 0 Z " fill="#A1DBF5" transform="translate(329,242)"/>
<path d="M0 0 C-0.66 0 -1.32 0 -2 0 C-2.33 0.99 -2.66 1.98 -3 3 C-5.73046875 3.87890625 -5.73046875 3.87890625 -9.1875 4.5625 C-12.62974968 5.25881794 -15.9122419 5.9707473 -19.24609375 7.08203125 C-22.01686844 8.00562281 -24.1040701 8.17034882 -27 8 C-27.33 8.99 -27.66 9.98 -28 11 C-30.6875 13.3125 -30.6875 13.3125 -34 15 C-37.375 14.25 -37.375 14.25 -40 13 C-36.33706606 9.75264959 -32.24789741 8.51356319 -27.6875 7 C-21.39978886 4.88190281 -21.39978886 4.88190281 -15.25390625 2.390625 C-12.55241959 1.23608809 -10.10612081 0.37794145 -7.25 -0.25 C-6.51265625 -0.42015625 -5.7753125 -0.5903125 -5.015625 -0.765625 C-3 -1 -3 -1 0 0 Z " fill="#81CCF2" transform="translate(189,8)"/>
<path d="M0 0 C6.13452177 -0.14377785 12.21039232 0.36953242 18.3125 0.94140625 C19.13371338 1.01141846 19.95492676 1.08143066 20.80102539 1.15356445 C25.33039136 1.61984322 28.77110567 2.18243145 32.4375 5.12890625 C32.4375 5.78890625 32.4375 6.44890625 32.4375 7.12890625 C33.076875 7.23203125 33.71625 7.33515625 34.375 7.44140625 C35.055625 7.66828125 35.73625 7.89515625 36.4375 8.12890625 C36.9325 9.61390625 36.9325 9.61390625 37.4375 11.12890625 C34.85969251 10.12202304 32.32643882 9.07726528 29.81640625 7.91015625 C13.90871532 0.67337036 -1.79638357 1.60460014 -18.5625 5.12890625 C-18.5625 4.46890625 -18.5625 3.80890625 -18.5625 3.12890625 C-12.92064272 -0.15217387 -6.36091669 0.31998514 0 0 Z " fill="#C2EEFD" transform="translate(327.5625,297.87109375)"/>
<path d="M0 0 C1.02328619 3.19411474 0.96256253 5.4215884 0.25 8.6875 C0.01023437 9.86892578 0.01023437 9.86892578 -0.234375 11.07421875 C-0.48703125 11.70972656 -0.7396875 12.34523437 -1 13 C-1.99 13.33 -2.98 13.66 -4 14 C-4 15.98 -4 17.96 -4 20 C-4.66 20 -5.32 20 -6 20 C-6.33 21.98 -6.66 23.96 -7 26 C-7.66 26 -8.32 26 -9 26 C-9.03738281 26.88042969 -9.07476563 27.76085937 -9.11328125 28.66796875 C-9.17902344 29.82941406 -9.24476562 30.99085938 -9.3125 32.1875 C-9.37050781 33.33605469 -9.42851562 34.48460937 -9.48828125 35.66796875 C-10.02406936 39.15672647 -10.92801671 41.17166292 -13 44 C-13.33 44 -13.66 44 -14 44 C-13.12632267 33.34113654 -10.18822012 23.80015863 -6 14 C-5.62125732 13.10933838 -5.62125732 13.10933838 -5.23486328 12.20068359 C-3.50271255 8.1282321 -1.75600825 4.06223242 0 0 Z " fill="#8DD5F6" transform="translate(21,147)"/>
<path d="M0 0 C0.93070313 0.00902344 1.86140625 0.01804688 2.8203125 0.02734375 C3.49835938 0.03894531 4.17640625 0.05054688 4.875 0.0625 C3.80859375 1.52734375 3.80859375 1.52734375 1.875 3.0625 C-1.27734375 3.50390625 -1.27734375 3.50390625 -5.0625 3.625 C-16.42758437 3.87706648 -16.42758437 3.87706648 -27.125 7.0625 C-29.16555005 7.13315617 -31.20834257 7.14671976 -33.25 7.125 C-34.34570312 7.11597656 -35.44140625 7.10695313 -36.5703125 7.09765625 C-37.83488281 7.08025391 -37.83488281 7.08025391 -39.125 7.0625 C-36.81641903 4.75391903 -35.82946369 4.61520516 -32.6875 4.02734375 C-31.34365234 3.77307617 -31.34365234 3.77307617 -29.97265625 3.51367188 C-28.56306641 3.2594043 -28.56306641 3.2594043 -27.125 3 C-26.21621094 2.82662109 -25.30742187 2.65324219 -24.37109375 2.47460938 C-16.28825231 0.97416726 -8.2358212 -0.10558745 0 0 Z " fill="#8BD1F3" transform="translate(230.125,-0.0625)"/>
<path d="M0 0 C0.9289719 3.02589189 1.00661884 5.2350751 0.51171875 8.3515625 C0.38337646 9.19468994 0.25503418 10.03781738 0.12280273 10.90649414 C-0.02084717 11.80360107 -0.16449707 12.70070801 -0.3125 13.625 C-1.52021601 21.50639399 -2.55062446 29.37074042 -3.26489258 37.31298828 C-3.62370639 40.93485739 -4.04916871 43.88352678 -6 47 C-6.65384108 31.23516518 -4.96396602 15.03271979 0 0 Z " fill="#A1DCF5" transform="translate(6,191)"/>
<path d="M0 0 C0.99 0 1.98 0 3 0 C3.33 1.65 3.66 3.3 4 5 C4.66 5 5.32 5 6 5 C6.20496094 5.71027344 6.40992188 6.42054688 6.62109375 7.15234375 C6.89050781 8.07144531 7.15992188 8.99054688 7.4375 9.9375 C7.83775391 11.31228516 7.83775391 11.31228516 8.24609375 12.71484375 C8.79026051 14.9402493 8.79026051 14.9402493 10 16 C10.02895909 17.61587983 9.98659579 19.23314543 9.9140625 20.84765625 C9.87023437 21.84603516 9.82640625 22.84441406 9.78125 23.87304688 C9.7296875 24.92556641 9.678125 25.97808594 9.625 27.0625 C9.58117187 28.08794922 9.53734375 29.11339844 9.4921875 30.16992188 C9.23148799 35.82927376 8.79463061 41.39044664 8 47 C7.34 47 6.68 47 6 47 C6.165 45.824375 6.33 44.64875 6.5 43.4375 C8.07515008 28.68205003 7.19897014 15.15673853 0 2 C0 1.34 0 0.68 0 0 Z " fill="#8DD3F5" transform="translate(173,177)"/>
<path d="M0 0 C3.21015044 1.24263888 6.35873079 2.59455735 9.5 4 C10.28503906 4.34804688 11.07007813 4.69609375 11.87890625 5.0546875 C13.4032687 5.73405345 14.92220882 6.42563484 16.4375 7.125 C24.71066072 9.94998171 33.33011587 10.48361192 42 11 C42 11.33 42 11.66 42 12 C38.9999376 12.02721831 36.00012744 12.04694378 33 12.0625 C31.74123047 12.07506836 31.74123047 12.07506836 30.45703125 12.08789062 C26.43049534 12.10349735 22.52525466 12.00615986 18.53125 11.46875 C15.49680633 11.06594774 13.80957959 10.94640765 11 12 C11.33 11.01 11.66 10.02 12 9 C11.0409375 8.8453125 11.0409375 8.8453125 10.0625 8.6875 C9.0415625 8.3471875 9.0415625 8.3471875 8 8 C7.67 7.01 7.34 6.02 7 5 C6.21625 4.9175 5.4325 4.835 4.625 4.75 C2 4 2 4 0.6875 1.9375 C0.460625 1.298125 0.23375 0.65875 0 0 Z " fill="#91D3F3" transform="translate(134,412)"/>
<path d="M0 0 C0 0.66 0 1.32 0 2 C-2.31 2.33 -4.62 2.66 -7 3 C-7 3.66 -7 4.32 -7 5 C-10.3 5 -13.6 5 -17 5 C-17 5.66 -17 6.32 -17 7 C-25.59272931 9.65207695 -35.49228913 8.34695472 -44 6 C-44 5.34 -44 4.68 -44 4 C-42.783125 4.165 -41.56625 4.33 -40.3125 4.5 C-25.59402577 6.03604015 -13.84384497 0 0 0 Z " fill="#6CC1EE" transform="translate(358,417)"/>
<path d="M0 0 C0.33 0 0.66 0 1 0 C0.835 1.134375 0.67 2.26875 0.5 3.4375 C-0.63602617 14.01256717 -1.13792052 24.66730947 2.44140625 34.80078125 C3.06782285 37.26702285 2.82160146 38.62225273 2 41 C2 40.01 2 39.02 2 38 C1.34 38 0.68 38 0 38 C-2.95048574 30.94086273 -3.40467328 24.65599132 -3.25 17.0625 C-3.24484375 16.02287109 -3.2396875 14.98324219 -3.234375 13.91210938 C-3.15524294 6.31048588 -3.15524294 6.31048588 -2 4 C-1.34 4 -0.68 4 0 4 C0 2.68 0 1.36 0 0 Z " fill="#86CEF3" transform="translate(320,190)"/>
<path d="M0 0 C-4.54128696 3.66477116 -9.63272675 5.5135463 -15 7.6875 C-15.99773437 8.10322266 -16.99546875 8.51894531 -18.0234375 8.94726562 C-18.98507812 9.33978516 -19.94671875 9.73230469 -20.9375 10.13671875 C-21.81277344 10.49467529 -22.68804687 10.85263184 -23.58984375 11.22143555 C-26 12 -26 12 -30 12 C-30 11.34 -30 10.68 -30 10 C-27.09399739 8.74335022 -25.20395416 8 -22 8 C-22 7.34 -22 6.68 -22 6 C-21.37351562 5.80664062 -20.74703125 5.61328125 -20.1015625 5.4140625 C-19.28429687 5.15367187 -18.46703125 4.89328125 -17.625 4.625 C-16.81289063 4.36976563 -16.00078125 4.11453125 -15.1640625 3.8515625 C-12.83540815 3.10145717 -12.83540815 3.10145717 -11 1 C-7.4080695 -0.33034463 -3.78529987 -0.07279423 0 0 Z " fill="#74C7F2" transform="translate(360,475)"/>
<path d="M0 0 C1.65 0 3.3 0 5 0 C3.67879172 2.93230193 2.25361803 4.98664899 -0.0390625 7.234375 C-0.90917969 8.09482422 -0.90917969 8.09482422 -1.796875 8.97265625 C-2.40015625 9.55917969 -3.0034375 10.14570313 -3.625 10.75 C-4.23601562 11.35199219 -4.84703125 11.95398438 -5.4765625 12.57421875 C-6.97988624 14.05405305 -8.48934856 15.52764676 -10 17 C-10.66 16.67 -11.32 16.34 -12 16 C-10.625 14 -10.625 14 -9 12 C-8.34 12 -7.68 12 -7 12 C-7.2475 11.278125 -7.495 10.55625 -7.75 9.8125 C-8 7 -8 7 -6.3125 4.1875 C-4 2 -4 2 0 2 C0 1.34 0 0.68 0 0 Z " fill="#5DC3F6" transform="translate(428,420)"/>
<path d="M0 0 C0 8.68372533 -7.37797048 15.17089757 -13 21 C-13.51046875 21.5775 -14.0209375 22.155 -14.546875 22.75 C-16.99051848 24.85205891 -19.8901323 24.70661625 -23 25 C-20.56039786 22.46281378 -18.01479593 20.07566573 -15.375 17.75 C-14.48941406 16.96882813 -14.48941406 16.96882813 -13.5859375 16.171875 C-12 15 -12 15 -10 15 C-9.566875 14.1028125 -9.566875 14.1028125 -9.125 13.1875 C-8 11 -8 11 -6 8 C-5.34 8 -4.68 8 -4 8 C-3.71125 7.05125 -3.4225 6.1025 -3.125 5.125 C-2 2 -2 2 0 0 Z " fill="#84CCF2" transform="translate(435,236)"/>
<path d="M0 0 C2.30858097 2.30858097 2.44729484 3.29553631 3.03515625 6.4375 C3.20466797 7.33339844 3.37417969 8.22929687 3.54882812 9.15234375 C3.71833984 10.09207031 3.88785156 11.03179687 4.0625 12 C4.23587891 12.90878906 4.40925781 13.81757813 4.58789062 14.75390625 C6.05448007 22.65438425 7.17753807 30.57233531 7.0625 38.625 C7.05347656 39.46289062 7.04445313 40.30078125 7.03515625 41.1640625 C7.02355469 41.76992187 7.01195312 42.37578125 7 43 C6.67 43 6.34 43 6 43 C5.10395632 36.95170514 4.88730557 31.1105424 5 25 C4.01 24.67 3.02 24.34 2 24 C1.67 20.04 1.34 16.08 1 12 C0.67 12 0.34 12 0 12 C0 8.04 0 4.08 0 0 Z " fill="#A5DFF7" transform="translate(493,191)"/>
<path d="M0 0 C0.33 0.99 0.66 1.98 1 3 C0.67 3.66 0.34 4.32 0 5 C0.66 5 1.32 5 2 5 C3.76462683 8.08809695 4 9.23312136 4 13 C4.66 13 5.32 13 6 13 C6.66 14.98 7.32 16.96 8 19 C8.66 19 9.32 19 10 19 C10 22.63 10 26.26 10 30 C7.96183242 26.94274864 6.88207733 24.19295065 5.625 20.75 C3.77697441 15.83107135 1.69482969 11.49138281 -1 7 C-1 6.34 -1 5.68 -1 5 C-1.66 5 -2.32 5 -3 5 C-3.66 3.68 -4.32 2.36 -5 1 C-3.35 0.67 -1.7 0.34 0 0 Z " fill="#90D5F6" transform="translate(301,70)"/>
<path d="M0 0 C0.87462891 0.00451172 1.74925781 0.00902344 2.65039062 0.01367188 C4.78779047 0.02535166 6.92515463 0.04328311 9.0625 0.0625 C9.0625 0.3925 9.0625 0.7225 9.0625 1.0625 C7.64324219 1.06636719 7.64324219 1.06636719 6.1953125 1.0703125 C-4.31249409 1.30552178 -13.20253408 3.6834384 -23.01269531 7.35107422 C-25.63315333 8.31961997 -28.28199938 9.19548323 -30.9375 10.0625 C-30.6075 9.0725 -30.2775 8.0825 -29.9375 7.0625 C-28.9475 7.0625 -27.9575 7.0625 -26.9375 7.0625 C-26.9375 6.4025 -26.9375 5.7425 -26.9375 5.0625 C-25.42103179 4.40648256 -23.89903825 3.7632336 -22.375 3.125 C-21.52808594 2.76535156 -20.68117188 2.40570313 -19.80859375 2.03515625 C-13.31122305 -0.16599382 -6.7738112 -0.06696543 0 0 Z " fill="#50B2E9" transform="translate(118.9375,143.9375)"/>
<path d="M0 0 C2.05078125 0.03255208 4.1015625 0.06510417 6.15234375 0.09765625 C5.73082031 0.57976562 5.30929688 1.061875 4.875 1.55859375 C4.32714844 2.19023438 3.77929688 2.821875 3.21484375 3.47265625 C2.66957031 4.09914063 2.12429687 4.725625 1.5625 5.37109375 C0.08275751 7.05397959 0.08275751 7.05397959 -0.84765625 9.09765625 C-1.50765625 9.09765625 -2.16765625 9.09765625 -2.84765625 9.09765625 C-3.24984375 10.18046875 -3.24984375 10.18046875 -3.66015625 11.28515625 C-4.83748123 14.07355751 -6.23911509 16.53861349 -7.84765625 19.09765625 C-8.91312578 15.90124765 -8.92193463 13.44018349 -8.84765625 10.09765625 C-8.18765625 10.09765625 -7.52765625 10.09765625 -6.84765625 10.09765625 C-6.51765625 9.43765625 -6.18765625 8.77765625 -5.84765625 8.09765625 C-5.18765625 8.09765625 -4.52765625 8.09765625 -3.84765625 8.09765625 C-3.70328125 6.96328125 -3.55890625 5.82890625 -3.41015625 4.66015625 C-2.69684835 0.14253955 -2.69684835 0.14253955 0 0 Z " fill="#69C6F9" transform="translate(202.84765625,65.90234375)"/>
<path d="M0 0 C1.9375 0.375 1.9375 0.375 4 1 C4.33 1.66 4.66 2.32 5 3 C5.99 2.34 6.98 1.68 8 1 C7.67 3.64 7.34 6.28 7 9 C7.66 9 8.32 9 9 9 C9.12117188 9.63808594 9.24234375 10.27617187 9.3671875 10.93359375 C9.53476562 11.75988281 9.70234375 12.58617187 9.875 13.4375 C10.11863281 14.67306641 10.11863281 14.67306641 10.3671875 15.93359375 C10.57601563 16.61550781 10.78484375 17.29742187 11 18 C11.66 18.33 12.32 18.66 13 19 C13 23.29 13 27.58 13 32 C11.43110249 28.86220497 10.71563555 27.14157622 10.125 23.875 C8.62185168 16.70249698 5.87872057 10.20595291 2 4 C2 3.34 2 2.68 2 2 C1.34 2 0.68 2 0 2 C0 1.34 0 0.68 0 0 Z " fill="#5FBEF2" transform="translate(380,323)"/>
<path d="M0 0 C0.33 0 0.66 0 1 0 C1.43665564 7.81128417 0.71222631 15.27252406 -0.375 23 C-0.50108643 23.91998779 -0.62717285 24.83997559 -0.75708008 25.7878418 C-0.950802 27.09942261 -0.950802 27.09942261 -1.1484375 28.4375 C-1.26364746 29.21996094 -1.37885742 30.00242187 -1.49755859 30.80859375 C-2.02571891 33.11217345 -2.86118801 34.93733485 -4 37 C-6.08306519 28.66773924 -4.67323625 20.15262807 -1.69921875 12.24609375 C-0.45882246 8.26158052 -0.25111679 4.14775668 0 0 Z " fill="#94D8F5" transform="translate(499,264)"/>
<path d="M0 0 C0.66 0.33 1.32 0.66 2 1 C1.61328125 1.42410156 1.2265625 1.84820312 0.828125 2.28515625 C-7.30482952 11.44479562 -9.94161955 19.96788537 -11 32 C-11.33 32 -11.66 32 -12 32 C-12.223293 29.93906592 -12.42802887 27.8761161 -12.625 25.8125 C-12.74101562 24.66394531 -12.85703125 23.51539063 -12.9765625 22.33203125 C-13.00023426 18.96669584 -12.47419799 16.98778294 -11 14 C-10.34 14 -9.68 14 -9 14 C-9 12.35 -9 10.7 -9 9 C-8.34 9 -7.68 9 -7 9 C-7 7.02 -7 5.04 -7 3 C-6.21625 2.87625 -5.4325 2.7525 -4.625 2.625 C-1.85942178 2.20882007 -1.85942178 2.20882007 0 0 Z " fill="#95D7F8" transform="translate(224,222)"/>
<path d="M0 0 C3.58859472 3.58859472 4.49648518 8.87933077 6.0625 13.625 C6.42666016 14.69363281 6.79082031 15.76226562 7.16601562 16.86328125 C9.07850679 22.61136005 10.52434326 27.95550048 11 34 C10.67 33.34 10.34 32.68 10 32 C9.34 32 8.68 32 8 32 C7.89042969 31.31035156 7.78085937 30.62070313 7.66796875 29.91015625 C6.62116731 23.70594284 5.18534323 17.90042672 3 12 C2.34 12 1.68 12 1 12 C1 9.36 1 6.72 1 4 C0.34 4 -0.32 4 -1 4 C-0.67 2.68 -0.34 1.36 0 0 Z " fill="#9AD7F5" transform="translate(482,156)"/>
<path d="M0 0 C0.33 0 0.66 0 1 0 C1.12608141 6.55623316 1.12608141 6.55623316 0.50390625 8.74609375 C-0.24242321 12.08432709 -0.14384872 15.41030567 -0.125 18.8125 C-0.12886719 19.49892578 -0.13273437 20.18535156 -0.13671875 20.89257812 C-0.12826847 25.35855357 0.27416434 29.59314064 1 34 C0.34 34 -0.32 34 -1 34 C-1 32.68 -1 31.36 -1 30 C-1.66 30 -2.32 30 -3 30 C-3.05880804 26.83341337 -3.09386406 23.66697007 -3.125 20.5 C-3.14175781 19.613125 -3.15851563 18.72625 -3.17578125 17.8125 C-3.22177891 11.55681808 -2.85173026 5.70346052 0 0 Z " fill="#83CCF3" transform="translate(270,342)"/>
<path d="M0 0 C2.1519437 3.22791555 2.20086443 4.28400809 2 8 C2.99 8.33 3.98 8.66 5 9 C5.84375 11.765625 5.84375 11.765625 6.5 15.25 C7.36795191 19.81708027 8.40433839 23.13060524 11 27 C12.98109846 30.49605611 13.95787114 34.12923565 15 38 C14.01 38.495 14.01 38.495 13 39 C8.0827528 30.53624265 5.43293975 21.41661409 2.64697266 12.09960938 C2.08495287 10.27569612 1.45997171 8.47141494 0.82421875 6.671875 C0 4 0 4 0 0 Z " fill="#99D8F5" transform="translate(8,314)"/>
<path d="M0 0 C0.66 0.33 1.32 0.66 2 1 C5.68979929 1.12299331 8.99053443 1.19435979 12.6171875 0.49609375 C17.21709517 -0.17848855 21.73356845 -0.10553753 26.375 -0.0625 C27.30183594 -0.05798828 28.22867188 -0.05347656 29.18359375 -0.04882812 C31.45579709 -0.03711574 33.72786388 -0.02071372 36 0 C36 0.99 36 1.98 36 3 C34.93523437 2.90460938 33.87046875 2.80921875 32.7734375 2.7109375 C21.34415471 1.79775951 11.26314063 2.70565654 0 5 C-0.66 3.68 -1.32 2.36 -2 1 C-1.34 0.67 -0.68 0.34 0 0 Z " fill="#99D9F7" transform="translate(148,298)"/>
<path d="M0 0 C0 4.02762414 -1.47666059 5.35282926 -4.07421875 8.28515625 C-7.29111539 11.14969505 -11.00736788 12.51474085 -15 14 C-15.99 14.495 -15.99 14.495 -17 15 C-19.55157655 15.0716735 -22.07472971 15.09308442 -24.625 15.0625 C-25.33140625 15.05798828 -26.0378125 15.05347656 -26.765625 15.04882812 C-28.51045275 15.03703875 -30.255237 15.01910324 -32 15 C-32 14.67 -32 14.34 -32 14 C-31.24976563 13.90203125 -30.49953125 13.8040625 -29.7265625 13.703125 C-17.9370486 11.9807275 -8.53309815 8.53309815 0 0 Z " fill="#91D4F4" transform="translate(278,273)"/>
<path d="M0 0 C0.33 0 0.66 0 1 0 C1.11069824 0.98395752 1.22139648 1.96791504 1.33544922 2.98168945 C1.74846955 6.63353828 2.17217853 10.28408103 2.59912109 13.93432617 C2.78237833 15.51406845 2.96273865 17.09414959 3.14013672 18.67456055 C3.39569622 20.94675575 3.66166433 23.21752678 3.9296875 25.48828125 C4.00686005 26.19463211 4.08403259 26.90098297 4.1635437 27.6287384 C4.58700086 31.12766189 5.00531373 33.00797059 7 36 C7.1953125 38.26171875 7.1953125 38.26171875 7.125 40.6875 C7.10695313 41.49574219 7.08890625 42.30398438 7.0703125 43.13671875 C7.03550781 44.05904297 7.03550781 44.05904297 7 45 C4.74068753 42.74068753 4.56791384 41.83689107 3.96484375 38.78125 C3.79533203 37.93046875 3.62582031 37.0796875 3.45117188 36.203125 C3.28166016 35.31109375 3.11214844 34.4190625 2.9375 33.5 C2.67743164 32.20835937 2.67743164 32.20835937 2.41210938 30.890625 C0.7867209 22.57062881 -0.15278874 14.36214168 -0.0625 5.875 C-0.05347656 4.75867188 -0.04445312 3.64234375 -0.03515625 2.4921875 C-0.02355469 1.66976563 -0.01195312 0.84734375 0 0 Z " fill="#B5E8FA" transform="translate(0,264)"/>
<path d="M0 0 C0 3.6408385 -1.10652063 4.94130256 -3 8 C-3.433125 9.2375 -3.433125 9.2375 -3.875 10.5 C-6.13957526 15.53238947 -10.2586332 18.42611516 -15 21 C-13.50427975 16.48748807 -10.97750739 13.05977125 -8.0625 9.375 C-7.39831055 8.51648438 -7.39831055 8.51648438 -6.72070312 7.640625 C-4.61489212 4.94167199 -2.50896606 2.33507732 0 0 Z " fill="#86CFF5" transform="translate(59,87)"/>
<path d="M0 0 C0.66 0.33 1.32 0.66 2 1 C-2.01733361 6.00383861 -5.19460237 9.15906073 -11 12 C-12.6893309 13.78206267 -14.20519655 15.62932778 -15.703125 17.57421875 C-16.34507813 18.27998047 -16.34507813 18.27998047 -17 19 C-17.66 19 -18.32 19 -19 19 C-19 19.66 -19 20.32 -19 21 C-19.99 20.67 -20.98 20.34 -22 20 C-21.67 19.34 -21.34 18.68 -21 18 C-20.34 18 -19.68 18 -19 18 C-19 17.34 -19 16.68 -19 16 C-17.63671875 14.58984375 -17.63671875 14.58984375 -15.6875 12.9375 C-14.96949219 12.32648437 -14.25148438 11.71546875 -13.51171875 11.0859375 C-9.0296297 7.3636427 -4.52585956 3.66894129 0 0 Z " fill="#AAE0F8" transform="translate(96,51)"/>
<path d="M0 0 C-21.63756281 6.34045226 -21.63756281 6.34045226 -31 6 C-31 5.67 -31 5.34 -31 5 C-30.2575 4.87625 -29.515 4.7525 -28.75 4.625 C-26.15156057 4.03444558 -24.34864012 3.20990552 -22 2 C-15.50704093 -0.7595076 -6.84262432 -2.17719865 0 0 Z " fill="#94D4F6" transform="translate(321,491)"/>
<path d="M0 0 C5.08646583 1.2207518 8.79646933 2.71919558 13 6 C13 6.66 13 7.32 13 8 C14.299375 8.12375 15.59875 8.2475 16.9375 8.375 C19.15234375 8.5859375 19.15234375 8.5859375 21 9 C21.33 9.66 21.66 10.32 22 11 C22.99 11.66 23.98 12.32 25 13 C23.31640625 13.6796875 23.31640625 13.6796875 21 14 C18.52734375 12.8203125 18.52734375 12.8203125 15.9375 11.125 C13.22740951 9.37261066 11.07208174 8.02402725 8 7 C8 6.34 8 5.68 8 5 C7.4225 4.9175 6.845 4.835 6.25 4.75 C3.3840696 3.79468987 2.0009236 2.21530827 0 0 Z " fill="#A0DAF6" transform="translate(111,458)"/>
<path d="M0 0 C2.97 0.33 5.94 0.66 9 1 C8.67 1.66 8.34 2.32 8 3 C9.32 3.66 10.64 4.32 12 5 C11.67 5.99 11.34 6.98 11 8 C12.11249155 10.96664412 13.67052817 12.88229834 16 15 C15.34 15.66 14.68 16.32 14 17 C13.23816406 16.03900391 13.23816406 16.03900391 12.4609375 15.05859375 C8.39837065 9.95375788 4.28097275 4.92311866 0 0 Z " fill="#87D1F6" transform="translate(158,159)"/>
<path d="M0 0 C0.33 0 0.66 0 1 0 C0.98839844 0.62003906 0.97679687 1.24007812 0.96484375 1.87890625 C0.88246981 9.96332056 1.39110081 17.94295895 2 26 C1.01 26 0.02 26 -1 26 C-1.93854006 18.96094956 -2.10808032 12.09727428 -2 5 C-1.34 5 -0.68 5 0 5 C0 3.35 0 1.7 0 0 Z " fill="#8ED2F6" transform="translate(188,102)"/>
<path d="M0 0 C1.32 0.33 2.64 0.66 4 1 C4 1.66 4 2.32 4 3 C1.78724901 4.91692867 -0.43149096 6.71971628 -2.75 8.5 C-3.70132812 9.24830078 -3.70132812 9.24830078 -4.671875 10.01171875 C-7.69083908 12.35770542 -10.52931842 14.36249178 -14 16 C-11.25 9.125 -11.25 9.125 -9 8 C-8.34 8.33 -7.68 8.66 -7 9 C-7 8.34 -7 7.68 -7 7 C-5.824375 6.6596875 -5.824375 6.6596875 -4.625 6.3125 C-1.78125 5.21875 -1.78125 5.21875 -0.6875 2.375 C-0.460625 1.59125 -0.23375 0.8075 0 0 Z " fill="#8ED3F6" transform="translate(412,436)"/>
<path d="M0 0 C0 3 0 3 -1.49609375 4.71875 C-2.45708984 5.60046875 -2.45708984 5.60046875 -3.4375 6.5 C-5.92139791 8.78819687 -6.90880131 9.72640392 -8 13 C-7.67 13.66 -7.34 14.32 -7 15 C-8.6396875 15.185625 -8.6396875 15.185625 -10.3125 15.375 C-14.07381802 15.75464801 -14.07381802 15.75464801 -17 18 C-19.1875 17.625 -19.1875 17.625 -21 17 C-19.54550599 15.9944239 -18.08627557 14.99569565 -16.625 14 C-15.81289063 13.443125 -15.00078125 12.88625 -14.1640625 12.3125 C-12 11 -12 11 -10 11 C-10 10.34 -10 9.68 -10 9 C-8.3203125 7.34375 -8.3203125 7.34375 -6.125 5.5 C-4.00964496 3.71066742 -1.95980876 1.95980876 0 0 Z " fill="#97D8F7" transform="translate(379,399)"/>
<path d="M0 0 C1.62683709 2.93640719 2.39124779 5.50897472 2.9375 8.8125 C3.53686599 12.08967856 4.27506549 14.92002628 5.6875 17.9375 C7 21 7 21 6 24 C1.59650959 20.50757657 0.18726443 16.32523017 -1 11 C-1.37714331 7.10734228 -1.24923914 3.74771743 0 0 Z " fill="#7CC8F3" transform="translate(107,365)"/>
<path d="M0 0 C8.57142857 0.85714286 8.57142857 0.85714286 12 3 C12 3.99 12 4.98 12 6 C12.99 6 13.98 6 15 6 C19 11.14285714 19 11.14285714 19 15 C16.95880212 13.38405168 14.95927063 11.7143618 13 10 C13 9.34 13 8.68 13 8 C12.34 7.773125 11.68 7.54625 11 7.3125 C7.09257775 5.60300277 3.47578462 3.47531064 0 1 C0 0.67 0 0.34 0 0 Z " fill="#8ED4F6" transform="translate(276,56)"/>
<path d="M0 0 C4.68673627 2.0829939 6.20606077 4.71404993 8.30078125 9.16015625 C9 11 9 11 9 13 C9.61230469 13.08378906 10.22460938 13.16757812 10.85546875 13.25390625 C13 14 13 14 14.30078125 15.77734375 C14.63464844 16.49019531 14.96851563 17.20304687 15.3125 17.9375 C15.65925781 18.64777344 16.00601563 19.35804688 16.36328125 20.08984375 C16.57339844 20.72019531 16.78351562 21.35054688 17 22 C16.67 22.66 16.34 23.32 16 24 C0 3.54150198 0 3.54150198 0 0 Z " fill="#A9E0F7" transform="translate(37,382)"/>
<path d="M0 0 C6.39459459 -0.49189189 6.39459459 -0.49189189 9 1.625 C9.66 2.40875 10.32 3.1925 11 4 C12.23482211 5.10060232 13.48592637 6.18312186 14.75 7.25 C15.36359375 7.77078125 15.9771875 8.2915625 16.609375 8.828125 C17.06828125 9.21484375 17.5271875 9.6015625 18 10 C17.67 10.99 17.34 11.98 17 13 C16.01 12.34 15.02 11.68 14 11 C14 10.34 14 9.68 14 9 C13.27425781 8.73316406 12.54851562 8.46632813 11.80078125 8.19140625 C9.01493542 7.00635328 6.69299551 5.62860559 4.1875 3.9375 C3.39730469 3.41027344 2.60710937 2.88304687 1.79296875 2.33984375 C1.20128906 1.89769531 0.60960937 1.45554687 0 1 C0 0.67 0 0.34 0 0 Z " fill="#9BDAF7" transform="translate(196,305)"/>
<path d="M0 0 C0.66 0.33 1.32 0.66 2 1 C0.37561031 2.79222332 -1.24948446 4.5837983 -2.875 6.375 C-3.33519531 6.88289063 -3.79539062 7.39078125 -4.26953125 7.9140625 C-9.64415668 13.83393978 -9.64415668 13.83393978 -11.875 14.875 C-14.40156407 16.21259274 -16.05926336 17.92063932 -18 20 C-18.33 19.01 -18.66 18.02 -19 17 C-17.37675026 14.56512539 -16.19925447 12.82787641 -14 11 C-11.1875 10.625 -11.1875 10.625 -9 11 C-9 10.34 -9 9.68 -9 9 C-7.37897032 7.28891311 -5.70496537 5.62746694 -4 4 C-3.236875 3.236875 -2.47375 2.47375 -1.6875 1.6875 C-1.130625 1.130625 -0.57375 0.57375 0 0 Z " fill="#44B1F0" transform="translate(86,61)"/>
<path d="M0 0 C0.33 0 0.66 0 1 0 C1 2.31 1 4.62 1 7 C0.34 7 -0.32 7 -1 7 C-1.03738281 7.88042969 -1.07476563 8.76085937 -1.11328125 9.66796875 C-1.17902344 10.82941406 -1.24476562 11.99085938 -1.3125 13.1875 C-1.37050781 14.33605469 -1.42851562 15.48460937 -1.48828125 16.66796875 C-2.02406936 20.15672647 -2.92801671 22.17166292 -5 25 C-5.33 25 -5.66 25 -6 25 C-5.2828016 16.2501795 -3.37318113 8.11899873 0 0 Z " fill="#92D4F4" transform="translate(13,166)"/>
<path d="M0 0 C3.1137257 0.61583055 5.24829807 1.63787677 7.85546875 3.43359375 C8.55994141 3.91763672 9.26441406 4.40167969 9.99023438 4.90039062 C10.71533203 5.40763672 11.44042969 5.91488281 12.1875 6.4375 C12.92419922 6.94087891 13.66089844 7.44425781 14.41992188 7.96289062 C19.86872691 11.73745382 19.86872691 11.73745382 21 14 C19.35 14 17.7 14 16 14 C16 13.34 16 12.68 16 12 C15.2575 11.731875 14.515 11.46375 13.75 11.1875 C11.10938051 10.04723249 9.14447156 8.90619694 7 7 C7 6.34 7 5.68 7 5 C6.34 5 5.68 5 5 5 C5 4.34 5 3.68 5 3 C2.525 2.01 2.525 2.01 0 1 C0 0.67 0 0.34 0 0 Z " fill="#8FD4F3" transform="translate(381,37)"/>
<path d="M0 0 C7.00584959 -0.17387838 13.63609505 0.4823548 20.5625 1.5 C21.57119141 1.64308594 22.57988281 1.78617187 23.61914062 1.93359375 C26.08027802 2.2835185 28.5404548 2.63908326 31 3 C31 3.33 31 3.66 31 4 C28.18743719 4.02684312 25.37512759 4.04676188 22.5625 4.0625 C21.76005859 4.07087891 20.95761719 4.07925781 20.13085938 4.08789062 C18.08704779 4.0965143 16.04316098 4.0522815 14 4 C13.67 3.67 13.34 3.34 13 3 C10.81980521 2.60333773 8.6303537 2.25684763 6.4375 1.9375 C4.64119141 1.67259766 4.64119141 1.67259766 2.80859375 1.40234375 C1.88175781 1.26957031 0.95492187 1.13679688 0 1 C0 0.67 0 0.34 0 0 Z " fill="#6EC4F1" transform="translate(210,496)"/>
<path d="M0 0 C0.33 1.32 0.66 2.64 1 4 C0.01 4.33 -0.98 4.66 -2 5 C-2.71727778 6.64551962 -3.38325228 8.31422289 -4 10 C-6.27795022 12.27795022 -7.93787293 13.05219877 -11 14 C-13.1640625 13.55078125 -13.1640625 13.55078125 -15 13 C-13.54634731 11.82750647 -12.08692581 10.66216184 -10.625 9.5 C-9.81289062 8.8503125 -9.00078125 8.200625 -8.1640625 7.53125 C-6 6 -6 6 -4 6 C-4 5.34 -4 4.68 -4 4 C-3.34 4 -2.68 4 -2 4 C-1.34 2.68 -0.68 1.36 0 0 Z " fill="#77C7F3" transform="translate(166,247)"/>
<path d="M0 0 C3.85410207 -0.05847045 7.70808865 -0.09375405 11.5625 -0.125 C12.64853516 -0.14175781 13.73457031 -0.15851563 14.85351562 -0.17578125 C25.70736302 -0.24176209 25.70736302 -0.24176209 31 2 C31.33 2.99 31.66 3.98 32 5 C30.22868439 4.69024532 28.45796222 4.37709575 26.6875 4.0625 C25.70136719 3.88847656 24.71523438 3.71445313 23.69921875 3.53515625 C21 3 21 3 18 2 C16.59335074 1.85507877 15.1818867 1.75371069 13.76953125 1.68359375 C12.56586914 1.62075195 12.56586914 1.62075195 11.33789062 1.55664062 C10.50451172 1.51732422 9.67113281 1.47800781 8.8125 1.4375 C7.96751953 1.39431641 7.12253906 1.35113281 6.25195312 1.30664062 C4.16815567 1.20068482 2.08409897 1.0998498 0 1 C0 0.67 0 0.34 0 0 Z " fill="#9DDDF7" transform="translate(372,145)"/>
<path d="M0 0 C1.00259507 3.00778521 1.30314642 5.53820647 1.5625 8.6875 C1.64628906 9.68136719 1.73007812 10.67523438 1.81640625 11.69921875 C1.87699219 12.45847656 1.93757813 13.21773437 2 14 C-1 16 -1 16 -4 16 C-4 16.66 -4 17.32 -4 18 C-4.66 18 -5.32 18 -6 18 C-4 12 -2 6 0 0 Z " fill="#65C2F4" transform="translate(310,125)"/>
<path d="M0 0 C9.73995772 -0.57293869 9.73995772 -0.57293869 14 3 C14 3.66 14 4.32 14 5 C14.639375 5.103125 15.27875 5.20625 15.9375 5.3125 C16.618125 5.539375 17.29875 5.76625 18 6 C18.33 6.99 18.66 7.98 19 9 C14.86177782 7.37003104 10.77231222 5.63344645 6.6875 3.875 C6.04232422 3.59785156 5.39714844 3.32070313 4.73242188 3.03515625 C3.15470995 2.35732446 1.57732174 1.67873926 0 1 C0 0.67 0 0.34 0 0 Z " fill="#85CFF2" transform="translate(346,300)"/>
<path d="M0 0 C0 3.96009225 -1.40780183 5.14520759 -3.875 8.1875 C-4.59429687 9.08855469 -5.31359375 9.98960937 -6.0546875 10.91796875 C-6.69664062 11.60503906 -7.33859375 12.29210937 -8 13 C-8.66 13 -9.32 13 -10 13 C-10.66 14.32 -11.32 15.64 -12 17 C-12 14.16032769 -11.59732819 11.76264289 -11 9 C-10.01 9 -9.02 9 -8 9 C-8 8.01 -8 7.02 -8 6 C-6.68 6 -5.36 6 -4 6 C-4 4.35 -4 2.7 -4 1 C-2.68 0.67 -1.36 0.34 0 0 Z " fill="#7FCDF6" transform="translate(447,403)"/>
<path d="M0 0 C-3.18619056 2.83862316 -5.19488816 3.36994662 -9.4296875 3.328125 C-10.99396484 3.32039063 -10.99396484 3.32039063 -12.58984375 3.3125 C-13.67394531 3.291875 -14.75804687 3.27125 -15.875 3.25 C-17.48955078 3.24226563 -17.48955078 3.24226563 -19.13671875 3.234375 C-24.18437754 3.18458305 -29.04421426 3.07058786 -34 2 C-34 1.67 -34 1.34 -34 1 C-33.41621582 1.01047363 -32.83243164 1.02094727 -32.23095703 1.03173828 C-29.52901699 1.07388108 -26.82714649 1.09950805 -24.125 1.125 C-23.2071875 1.14175781 -22.289375 1.15851563 -21.34375 1.17578125 C-15.68631296 1.21562236 -10.58748273 0.69517709 -5.08935547 -0.66455078 C-3 -1 -3 -1 0 0 Z " fill="#A9E0F7" transform="translate(400,267)"/>
<path d="M0 0 C0 3.60394392 -0.93587236 4.7624445 -2.875 7.75 C-5.41366257 11.83341479 -6.98215184 15.31789846 -8 20 C-8.33 20 -8.66 20 -9 20 C-9 17.03 -9 14.06 -9 11 C-8.34 11 -7.68 11 -7 11 C-7 9.35 -7 7.7 -7 6 C-6.360625 5.731875 -5.72125 5.46375 -5.0625 5.1875 C-2.66868314 4.11332248 -2.66868314 4.11332248 -2 1 C-1.34 0.67 -0.68 0.34 0 0 Z " fill="#82CFF4" transform="translate(330,170)"/>
<path d="M0 0 C0.99 0.33 1.98 0.66 3 1 C-6.34939759 8.86199343 -6.34939759 8.86199343 -9.0625 9.4375 C-11.73409388 10.21312403 -12.52872975 11.71953111 -14 14 C-15.32 13.67 -16.64 13.34 -18 13 C-15.30365386 11.03503166 -12.60569919 9.07251023 -9.90234375 7.1171875 C-8.19314962 5.87037294 -6.49330549 4.61023499 -4.81640625 3.3203125 C-3.26486074 2.13913592 -1.63807067 1.05792064 0 0 Z " fill="#89CFF2" transform="translate(116,37)"/>
<path d="M0 0 C0.66 0.66 1.32 1.32 2 2 C1.96712417 4.72869407 1.43602229 7.2966618 1 10 C0.34 10 -0.32 10 -1 10 C-1 11.98 -1 13.96 -1 16 C-2.98 16.66 -4.96 17.32 -7 18 C-5.99107518 15.47542578 -4.98049348 12.95156495 -3.96484375 10.4296875 C-3.62582031 9.58664062 -3.28679687 8.74359375 -2.9375 7.875 C-2.59589844 7.02679688 -2.25429688 6.17859375 -1.90234375 5.3046875 C-1.21748681 3.55548578 -0.59403162 1.78209487 0 0 Z " fill="#8DD4F7" transform="translate(286,255)"/>
<path d="M0 0 C0.99 0.33 1.98 0.66 3 1 C3 1.66 3 2.32 3 3 C5.64 3 8.28 3 11 3 C12.4606285 5.64738916 13 6.89448334 13 10 C9.69918209 8.38102741 6.47442567 6.64075691 3.25 4.875 C2.26515625 4.33617187 1.2803125 3.79734375 0.265625 3.2421875 C-0.48203125 2.83226562 -1.2296875 2.42234375 -2 2 C-1.34 1.34 -0.68 0.68 0 0 Z " fill="#6BC6F4" transform="translate(145,149)"/>
<path d="M0 0 C4.95998472 0.61632946 8.93671966 2.79835629 13.3125 5.0625 C14.05306641 5.43955078 14.79363281 5.81660156 15.55664062 6.20507812 C17.37387522 7.13128157 19.18732404 8.06490629 21 9 C19.68 9.33 18.36 9.66 17 10 C17 9.34 17 8.68 17 8 C15.68 8 14.36 8 13 8 C13 7.34 13 6.68 13 6 C11.1746875 5.8453125 11.1746875 5.8453125 9.3125 5.6875 C5.59852427 5.22572682 3.00373615 4.34666887 0 2 C0 1.34 0 0.68 0 0 Z " fill="#8ED2F4" transform="translate(344,18)"/>
<path d="M0 0 C4 2 8 4 12 6 C12 6.66 12 7.32 12 8 C12.99 8 13.98 8 15 8 C15.33 9.65 15.66 11.3 16 13 C12.83030356 11.54150642 10.19319346 9.76054587 7.4375 7.625 C6.67308594 7.03976562 5.90867187 6.45453125 5.12109375 5.8515625 C3.05860042 4.05115395 1.54933054 2.24727178 0 0 Z " fill="#92D4F4" transform="translate(86,439)"/>
<path d="M0 0 C2.66433205 2.52985472 4.90783283 5.30988735 7.1875 8.1875 C7.90292969 9.08855469 8.61835938 9.98960937 9.35546875 10.91796875 C10.16951172 11.94857422 10.16951172 11.94857422 11 13 C9.68 13.33 8.36 13.66 7 14 C7 13.01 7 12.02 7 11 C5.02 11.99 3.04 12.98 1 14 C1.20625 13.13375 1.4125 12.2675 1.625 11.375 C2.04279223 7.61486993 1.34739245 5.48736868 0 2 C0 1.34 0 0.68 0 0 Z " fill="#7FCFF5" transform="translate(277,392)"/>
<path d="M0 0 C2.64 0 5.28 0 8 0 C5.31998165 1.7866789 2.96871256 2.9322137 0 4.125 C-1.299375 4.65480469 -1.299375 4.65480469 -2.625 5.1953125 C-5 6 -5 6 -8 6 C-8 6.66 -8 7.32 -8 8 C-8.66 8 -9.32 8 -10 8 C-10 6.35 -10 4.7 -10 3 C-6.52674819 1.8422494 -3.63932552 1.93133348 0 2 C0 1.34 0 0.68 0 0 Z " fill="#8DD4F4" transform="translate(237,213)"/>
<path d="M0 0 C-13.78967868 7.74780915 -13.78967868 7.74780915 -22 7 C-22.99 6.34 -23.98 5.68 -25 5 C-24.24976563 4.90203125 -23.49953125 4.8040625 -22.7265625 4.703125 C-16.3722483 3.7747869 -10.89024863 2.41697925 -5.05859375 -0.29296875 C-3 -1 -3 -1 0 0 Z " fill="#99DAF6" transform="translate(278,169)"/>
<path d="M0 0 C0.71929687 0.28875 1.43859375 0.5775 2.1796875 0.875 C3.97367766 1.59060826 5.77029555 2.29968945 7.5703125 3 C8.41335937 3.33 9.25640625 3.66 10.125 4 C10.97320312 4.33 11.82140625 4.66 12.6953125 5 C15 6 15 6 18 8 C16.5629191 8.05422947 15.12524538 8.09289723 13.6875 8.125 C12.88699219 8.14820313 12.08648437 8.17140625 11.26171875 8.1953125 C9 8 9 8 6 6 C5.319375 5.896875 4.63875 5.79375 3.9375 5.6875 C2 5 2 5 0.75 2.4375 C0.5025 1.633125 0.255 0.82875 0 0 Z " fill="#9AD9F6" transform="translate(227,279)"/>
<path d="M0 0 C2.78992366 2.48740182 4.44594313 5.24218857 6.25 8.5 C6.79140625 9.4590625 7.3328125 10.418125 7.890625 11.40625 C9 14 9 14 8 17 C6.5 15.6875 6.5 15.6875 5 14 C5 13.01 5 12.02 5 11 C4.01 11 3.02 11 2 11 C2 9.35 2 7.7 2 6 C1.34 6 0.68 6 0 6 C0 4.02 0 2.04 0 0 Z " fill="#8AD0F3" transform="translate(465,122)"/>
<path d="M0 0 C3.7910119 1.44950455 7.3874638 3.15172566 11 5 C11 5.66 11 6.32 11 7 C12.32 7.33 13.64 7.66 15 8 C15 8.99 15 9.98 15 11 C13.68 11.33 12.36 11.66 11 12 C11.33 11.01 11.66 10.02 12 9 C11.0409375 8.8453125 11.0409375 8.8453125 10.0625 8.6875 C9.0415625 8.3471875 9.0415625 8.3471875 8 8 C7.67 7.01 7.34 6.02 7 5 C6.21625 4.9175 5.4325 4.835 4.625 4.75 C2 4 2 4 0.6875 1.9375 C0.460625 1.298125 0.23375 0.65875 0 0 Z " fill="#47B3F0" transform="translate(134,412)"/>
<path d="M0 0 C1 3 1 3 -0.65234375 6.35546875 C-1.40377702 7.63889017 -2.16596501 8.91606134 -2.9375 10.1875 C-3.51661133 11.16879883 -3.51661133 11.16879883 -4.10742188 12.16992188 C-5.06253088 13.78535316 -6.03010066 15.39340525 -7 17 C-8.67830848 13.64338305 -7.6353188 10.63864406 -7 7 C-6.34 6.67 -5.68 6.34 -5 6 C-5 6.66 -5 7.32 -5 8 C-4.34 8 -3.68 8 -3 8 C-3 6.35 -3 4.7 -3 3 C-2.01 2.67 -1.02 2.34 0 2 C0 1.34 0 0.68 0 0 Z " fill="#77CEF7" transform="translate(473,361)"/>
<path d="M0 0 C2.29013653 3.4352048 2.17842973 4.985331 2 9 C1.01 9 0.02 9 -1 9 C-1 9.66 -1 10.32 -1 11 C-1.99 11.33 -2.98 11.66 -4 12 C-4.66 12.66 -5.32 13.32 -6 14 C-5.31113213 10.61108678 -4.01283514 7.81988387 -2.4375 4.75 C-1.75494141 3.41195312 -1.75494141 3.41195312 -1.05859375 2.046875 C-0.70925781 1.37140625 -0.35992187 0.6959375 0 0 Z " fill="#66C4F9" transform="translate(28,132)"/>
<path d="M0 0 C4.14298667 0.59834725 7.18194377 2.00664285 10.8125 4.0625 C11.78832031 4.61035156 12.76414062 5.15820312 13.76953125 5.72265625 C14.50558594 6.14417969 15.24164063 6.56570312 16 7 C15.67 7.66 15.34 8.32 15 9 C14.01 9 13.02 9 12 9 C12 8.34 12 7.68 12 7 C10.02 7.66 8.04 8.32 6 9 C6 7.33333333 6 5.66666667 6 4 C4.02 3.34 2.04 2.68 0 2 C0 1.34 0 0.68 0 0 Z " fill="#99DAF7" transform="translate(365,28)"/>
<path d="M0 0 C3.63 0.33 7.26 0.66 11 1 C11 1.66 11 2.32 11 3 C11.94875 3.103125 12.8975 3.20625 13.875 3.3125 C17 4 17 4 19 7 C12.28460827 5.70024676 6.27980887 3.70071112 0 1 C0 0.67 0 0.34 0 0 Z " fill="#94D5F4" transform="translate(156,482)"/>
<path d="M0 0 C0 3.87174879 -1.16354335 4.76047249 -3.6875 7.625 C-4.37199219 8.42164063 -5.05648438 9.21828125 -5.76171875 10.0390625 C-8.26333504 12.23070539 -9.78099702 12.5064561 -13 13 C-13.33 13.66 -13.66 14.32 -14 15 C-14.99 14.67 -15.98 14.34 -17 14 C-15.35 13.34 -13.7 12.68 -12 12 C-12 11.34 -12 10.68 -12 10 C-10.58766674 9.05844449 -9.17146717 8.12206508 -7.734375 7.21875 C-4.80120898 5.15760631 -2.47045364 2.58809429 0 0 Z " fill="#A0DBF4" transform="translate(297,152)"/>
<path d="M0 0 C0.33 0 0.66 0 1 0 C3.56277056 11.37229437 3.56277056 11.37229437 3 17 C2.01 18.32 1.02 19.64 0 21 C0 14.07 0 7.14 0 0 Z " fill="#A7DEF9" transform="translate(311,101)"/>
<path d="M0 0 C0.68835938 0.59748047 0.68835938 0.59748047 1.390625 1.20703125 C5.31674827 4.60015709 5.31674827 4.60015709 9.4375 7.75 C9.953125 8.1625 10.46875 8.575 11 9 C11 9.66 11 10.32 11 11 C11.99 11.33 12.98 11.66 14 12 C13.67 12.66 13.34 13.32 13 14 C11.68 13.67 10.36 13.34 9 13 C9 12.34 9 11.68 9 11 C8.236875 10.566875 7.47375 10.13375 6.6875 9.6875 C2.759751 7.221239 1.43898262 4.31694787 0 0 Z " fill="#8ED5F6" transform="translate(120,399)"/>
<path d="M0 0 C1.95082515 3.7455843 3.41591037 7.61472552 4.90234375 11.5625 C6.00714271 14.01586139 7.30833628 15.91795235 9 18 C8.67 18.66 8.34 19.32 8 20 C7.34 18.68 6.68 17.36 6 16 C5.34 16 4.68 16 4 16 C0.67424388 10.4174808 -0.46450943 6.50313209 0 0 Z " fill="#9FDCF5" transform="translate(59,222)"/>
<path d="M0 0 C3.3 1.65 6.6 3.3 10 5 C10 5.66 10 6.32 10 7 C10.99 7.33 11.98 7.66 13 8 C11.02 8.99 11.02 8.99 9 10 C9 9.34 9 8.68 9 8 C7.68 8 6.36 8 5 8 C4.87625 7.071875 4.87625 7.071875 4.75 6.125 C4.18741541 3.81562433 4.18741541 3.81562433 1.9375 2.75 C1.298125 2.5025 0.65875 2.255 0 2 C0 1.34 0 0.68 0 0 Z " fill="#73C7F3" transform="translate(205,157)"/>
<path d="M0 0 C-0.99 0.33 -1.98 0.66 -3 1 C-3 1.66 -3 2.32 -3 3 C-9.5 6 -9.5 6 -14 6 C-14.33 6.66 -14.66 7.32 -15 8 C-15.66 7.34 -16.32 6.68 -17 6 C-15.73308493 5.32591692 -14.46129251 4.66099503 -13.1875 4 C-12.47980469 3.62875 -11.77210938 3.2575 -11.04296875 2.875 C-9 2 -9 2 -6 2 C-6 1.34 -6 0.68 -6 0 C-2.25 -1.125 -2.25 -1.125 0 0 Z " fill="#8CD2F4" transform="translate(149,22)"/>
<path d="M0 0 C2.64 0 5.28 0 8 0 C5.6759501 1.5493666 3.5598824 2.74393337 1.0625 3.9375 C-1.8745707 5.38169499 -4.47262253 6.89385211 -7 9 C-7.66 8.67 -8.32 8.34 -9 8 C-8.34 6.68 -7.68 5.36 -7 4 C-5.35 4 -3.7 4 -2 4 C-2 3.34 -2 2.68 -2 2 C-1.34 2 -0.68 2 0 2 C0 1.34 0 0.68 0 0 Z " fill="#90D4F7" transform="translate(140,303)"/>
<path d="M0 0 C2.70058773 2.52054855 4.40337783 4.69271121 6 8 C6.66 8.33 7.32 8.66 8 9 C8.4140625 11.28515625 8.4140625 11.28515625 8.625 14.0625 C8.69976562 14.98160156 8.77453125 15.90070313 8.8515625 16.84765625 C8.90054687 17.55792969 8.94953125 18.26820313 9 19 C7 18 7 18 6.03515625 15.671875 C5.71417969 14.70765625 5.39320313 13.7434375 5.0625 12.75 C3.7476262 8.81070197 2.14619131 5.54641299 0 2 C0 1.34 0 0.68 0 0 Z " fill="#A3DCF4" transform="translate(279,227)"/>
<path d="M0 0 C0.33 0 0.66 0 1 0 C1.26442904 7.59498961 0.60881575 14.57359158 -1 22 C-1.33 22 -1.66 22 -2 22 C-2 17.05 -2 12.1 -2 7 C-1.34 7 -0.68 7 0 7 C0 4.69 0 2.38 0 0 Z " fill="#7BCCF1" transform="translate(2,216)"/>
<path d="M0 0 C-3.13691248 2.09127499 -5.71123545 2.93665084 -9.3125 4 C-13.56804876 5.26529673 -17.79495791 6.5749933 -22 8 C-21.67 7.01 -21.34 6.02 -21 5 C-20.01 5 -19.02 5 -18 5 C-18 4.34 -18 3.68 -18 3 C-16.12743583 2.49095343 -14.25180659 1.99317545 -12.375 1.5 C-11.33085938 1.2215625 -10.28671875 0.943125 -9.2109375 0.65625 C-6.04312582 0.00881404 -3.22258533 -0.1161292 0 0 Z " fill="#CBF3FD" transform="translate(110,146)"/>
<path d="M0 0 C-4.75 4.875 -4.75 4.875 -7 6 C-9.01927511 5.39421747 -11.02253397 4.73080266 -13 4 C-8.61350163 0.52105302 -5.57581513 -0.123907 0 0 Z " fill="#69C5F7" transform="translate(162,17)"/>
<path d="M0 0 C0 0.66 0 1.32 0 2 C-2.31 2.33 -4.62 2.66 -7 3 C-7 3.66 -7 4.32 -7 5 C-11.95 5.33 -16.9 5.66 -22 6 C-18.49728813 4.24864406 -15.70371667 3.32888461 -11.9375 2.4375 C-1.72020725 0 -1.72020725 0 0 0 Z " fill="#A5DFF6" transform="translate(358,417)"/>
<path d="M0 0 C0.66 0.33 1.32 0.66 2 1 C0.71034824 2.37562854 -0.62689293 3.70766393 -2 5 C-2.66 5 -3.32 5 -4 5 C-4 5.66 -4 6.32 -4 7 C-4.66 7 -5.32 7 -6 7 C-6.66 8.32 -7.32 9.64 -8 11 C-8.33 11 -8.66 11 -9 11 C-9 8.69 -9 6.38 -9 4 C-8.2575 3.896875 -7.515 3.79375 -6.75 3.6875 C-3.82985982 2.95746496 -2.26812446 1.93210602 0 0 Z " fill="#89D3F8" transform="translate(340,159)"/>
<path d="M0 0 C3.13544495 1.56772247 3.73666651 4.25277876 5.1875 7.375 C5.73792969 8.53773438 6.28835938 9.70046875 6.85546875 10.8984375 C8 14 8 14 7 17 C7 16.34 7 15.68 7 15 C6.01 14.67 5.02 14.34 4 14 C2.83203125 11.85546875 2.83203125 11.85546875 1.8125 9.1875 C1.46832031 8.31480469 1.12414062 7.44210938 0.76953125 6.54296875 C0 4 0 4 0 0 Z " fill="#8FD3F3" transform="translate(474,139)"/>
<path d="M0 0 C5.15138296 2.73338688 9.97390359 5.71691871 14 10 C14 10.66 14 11.32 14 12 C12.68 12 11.36 12 10 12 C10 11.34 10 10.68 10 10 C9.34 10 8.68 10 8 10 C7.6596875 9.071875 7.6596875 9.071875 7.3125 8.125 C6.14688017 5.76128418 6.14688017 5.76128418 3.4375 5 C2.633125 4.67 1.82875 4.34 1 4 C0.1875 1.875 0.1875 1.875 0 0 Z " fill="#95D8F6" transform="translate(402,51)"/>
<path d="M0 0 C1.65360951 3.30721902 0.15339901 6.17685928 -0.8984375 9.578125 C-2.55324352 13.21635099 -4.46773286 14.27311384 -8 16 C-5.33333333 10.66666667 -2.66666667 5.33333333 0 0 Z " fill="#45B4F3" transform="translate(437,234)"/>
<path d="M0 0 C0.66 0 1.32 0 2 0 C2.20129748 3.62335457 2.05556739 5.965591 0 9 C-2.625 11.25 -2.625 11.25 -5 13 C-5.33 12.34 -5.66 11.68 -6 11 C-4.78515625 8.3984375 -4.78515625 8.3984375 -3.0625 5.375 C-2.21365234 3.87066406 -2.21365234 3.87066406 -1.34765625 2.3359375 C-0.90292969 1.56507812 -0.45820312 0.79421875 0 0 Z " fill="#8AD1F4" transform="translate(35,119)"/>
<path d="M0 0 C0.66 0 1.32 0 2 0 C3.37073786 1.63604196 4.70055256 3.30678061 6 5 C6.86625 5.8353125 6.86625 5.8353125 7.75 6.6875 C9 8 9 8 9 10 C9.66 10 10.32 10 11 10 C11 11.98 11 13.96 11 16 C6.84430926 10.9538041 3.31199289 5.63038792 0 0 Z " fill="#A0DDF6" transform="translate(214,318)"/>
<path d="M0 0 C2.8125 0.1875 2.8125 0.1875 6 1 C7.5 3.1875 7.5 3.1875 9 6 C10.91290902 8.1056828 12.94103754 10.03254699 15 12 C14.67 12.66 14.34 13.32 14 14 C9.33333333 9.33333333 4.66666667 4.66666667 0 0 Z " fill="#BAE7FA" transform="translate(365,309)"/>
<path d="M0 0 C3.90077246 3.68991989 6.60857718 7.21715436 9 12 C7.68 11.67 6.36 11.34 5 11 C5 11.66 5 12.32 5 13 C4.34 13 3.68 13 3 13 C3.33 11.02 3.66 9.04 4 7 C3.34 7 2.68 7 2 7 C0 4 0 4 0 0 Z " fill="#6AC2F2" transform="translate(329,242)"/>
<path d="M0 0 C3.26008643 3.16952847 6.22237877 6.39937989 9 10 C8.67 10.66 8.34 11.32 8 12 C1.29540481 7.06345733 1.29540481 7.06345733 0.0625 2.625 C0.0315625 1.325625 0.0315625 1.325625 0 0 Z " fill="#8FD2F4" transform="translate(445,93)"/>
<path d="M0 0 C-0.99 1.485 -0.99 1.485 -2 3 C-2.99 3 -3.98 3 -5 3 C-5 3.66 -5 4.32 -5 5 C-6.96466413 6.06775224 -8.96855359 7.06553465 -11 8 C-11.66 7.67 -12.32 7.34 -13 7 C-12.01 6.67 -11.02 6.34 -10 6 C-10 5.34 -10 4.68 -10 4 C-9.34 4 -8.68 4 -8 4 C-8 3.01 -8 2.02 -8 1 C-5.07175348 0.02391783 -3.04386724 -0.08226668 0 0 Z " fill="#92D4F4" transform="translate(386,460)"/>
<path d="M0 0 C0.33 0 0.66 0 1 0 C1.16129032 9.67741935 1.16129032 9.67741935 0 12 C-2.5625 13.25 -2.5625 13.25 -5 14 C-3.46527032 9.27775484 -1.76054874 4.64144669 0 0 Z " fill="#9BD9F6" transform="translate(228,378)"/>
<path d="M0 0 C0.99 1.485 0.99 1.485 2 3 C2.79857422 3.62841797 2.79857422 3.62841797 3.61328125 4.26953125 C5.75978505 6.94812613 5.28723439 9.32977552 5.1875 12.6875 C5.14689453 14.45673828 5.14689453 14.45673828 5.10546875 16.26171875 C5.07066406 17.16535156 5.03585937 18.06898438 5 19 C3.50167932 16.22904712 2.58061462 13.70546499 1.9375 10.625 C1.77378906 9.84511719 1.61007812 9.06523437 1.44140625 8.26171875 C0.90550652 5.51582543 0.42540823 2.7651535 0 0 Z " fill="#99DAF7" transform="translate(388,336)"/>
<path d="M0 0 C0.48210937 0.42152344 0.96421875 0.84304687 1.4609375 1.27734375 C2.09257812 1.82519531 2.72421875 2.37304688 3.375 2.9375 C4.00148438 3.48277344 4.62796875 4.02804688 5.2734375 4.58984375 C6.95632334 6.06958624 6.95632334 6.06958624 9 7 C9.72159424 8.64363134 10.39351421 10.31050386 11 12 C8.64828869 11.40138258 6.3140622 10.73075648 4 10 C3 8 3 8 2.5625 6.125 C1.9698251 3.88600592 1.06026021 2.0518396 0 0 Z " fill="#89D2F5" transform="translate(334,248)"/>
<path d="M0 0 C2.97 0.495 2.97 0.495 6 1 C2.72291137 4.67033927 -0.71522208 6.69281189 -5 9 C-5 7.35 -5 5.7 -5 4 C-3.68 4.33 -2.36 4.66 -1 5 C-0.67 3.35 -0.34 1.7 0 0 Z " fill="#86CFF7" transform="translate(214,57)"/>
<path d="M0 0 C-0.66 1.32 -1.32 2.64 -2 4 C-2.66 4 -3.32 4 -4 4 C-4 4.66 -4 5.32 -4 6 C-5.98 6 -7.96 6 -10 6 C-10 6.66 -10 7.32 -10 8 C-10.99 8 -11.98 8 -13 8 C-13 7.34 -13 6.68 -13 6 C-11.21118264 4.99491199 -9.41885304 3.99607264 -7.625 3 C-6.62726563 2.443125 -5.62953125 1.88625 -4.6015625 1.3125 C-2 0 -2 0 0 0 Z " fill="#91D4F4" transform="translate(132,29)"/>
<path d="M0 0 C5.41390868 0.46671627 9.20517932 1.24297811 14 4 C14 4.66 14 5.32 14 6 C14.66 6.33 15.32 6.66 16 7 C12.05050296 6.37183502 8.80107972 5.1354471 5.1875 3.4375 C3.72376953 2.75494141 3.72376953 2.75494141 2.23046875 2.05859375 C1.49441406 1.70925781 0.75835937 1.35992187 0 1 C0 0.67 0 0.34 0 0 Z " fill="#8CD3F3" transform="translate(140,475)"/>
<path d="M0 0 C0 0.99 0 1.98 0 3 C-1.66666667 4.66666667 -3.33333333 6.33333333 -5 8 C-5.86119134 10.17346568 -5.86119134 10.17346568 -6 12 C-7.98 12 -9.96 12 -12 12 C-8 8 -4 4 0 0 Z " fill="#9CDBF7" transform="translate(217,400)"/>
<path d="M0 0 C0.33 0 0.66 0 1 0 C1.08074203 2.62561109 1.1403623 5.24875676 1.1875 7.875 C1.22520508 8.99455078 1.22520508 8.99455078 1.26367188 10.13671875 C1.29296875 12.3046875 1.29296875 12.3046875 1 16 C0.01 16.66 -0.98 17.32 -2 18 C-1.42085333 11.98673249 -0.77662055 5.99107278 0 0 Z " fill="#87CCF0" transform="translate(393,358)"/>
<path d="M0 0 C0.66 0 1.32 0 2 0 C1.33333333 6 0.66666667 12 0 18 C-0.33 18 -0.66 18 -1 18 C-1.223293 15.93906592 -1.42802887 13.8761161 -1.625 11.8125 C-1.74101562 10.66394531 -1.85703125 9.51539063 -1.9765625 8.33203125 C-2.00023426 4.96669584 -1.47419799 2.98778294 0 0 Z " fill="#81CCEF" transform="translate(213,236)"/>
<path d="M0 0 C0.66 0.33 1.32 0.66 2 1 C0.92807816 2.3218362 -0.15802695 3.63217927 -1.25 4.9375 C-1.85328125 5.66839844 -2.4565625 6.39929687 -3.078125 7.15234375 C-5.10741134 9.10326334 -6.254407 9.61731779 -9 10 C-6.68116787 5.49115974 -3.93548431 3.06093224 0 0 Z " fill="#91D2F4" transform="translate(96,51)"/>
<path d="M0 0 C-0.66 0 -1.32 0 -2 0 C-2 0.66 -2 1.32 -2 2 C-3.60049704 2.39036513 -5.20562371 2.76178619 -6.8125 3.125 C-7.70582031 3.33382813 -8.59914062 3.54265625 -9.51953125 3.7578125 C-12 4 -12 4 -15 2 C-13.06524329 1.46906676 -11.12706845 0.95057683 -9.1875 0.4375 C-8.10855469 0.14746094 -7.02960938 -0.14257812 -5.91796875 -0.44140625 C-3 -1 -3 -1 0 0 Z " fill="#96D8F7" transform="translate(192,420)"/>
<path d="M0 0 C0.33 0 0.66 0 1 0 C1.04898437 0.80824219 1.09796875 1.61648438 1.1484375 2.44921875 C1.22320312 3.51785156 1.29796875 4.58648437 1.375 5.6875 C1.44460938 6.74324219 1.51421875 7.79898437 1.5859375 8.88671875 C1.98923111 11.91903011 2.82588102 14.19834212 4 17 C4 17.99 4 18.98 4 20 C3.34 20 2.68 20 2 20 C2 18.68 2 17.36 2 16 C1.34 16 0.68 16 0 16 C0 10.72 0 5.44 0 0 Z " fill="#6FC3ED" transform="translate(267,356)"/>
<path d="M0 0 C0 4.3080638 -1.63542989 7.43881411 -4 11 C-5.92632898 12.69610918 -7.72721264 13.7602978 -10 15 C-8.79618552 12.50638429 -7.54571278 10.31856917 -6 8 C-5.34 8 -4.68 8 -4 8 C-3.71125 7.05125 -3.4225 6.1025 -3.125 5.125 C-2 2 -2 2 0 0 Z " fill="#AEE2F6" transform="translate(435,236)"/>
<path d="M0 0 C6 7.4 6 7.4 6 11 C2.93738507 9.97912836 1.94220597 9.47189851 0 7 C-1.29230769 2.58461538 -1.29230769 2.58461538 0 0 Z " fill="#8DD1F5" transform="translate(323,231)"/>
<path d="M0 0 C4.125 0.6875 8.25 1.375 12.375 2.0625 C13.96441406 2.32740234 13.96441406 2.32740234 15.5859375 2.59765625 C16.38257813 2.73042969 17.17921875 2.86320313 18 3 C18 3.33 18 3.66 18 4 C15.93867858 4.10864945 13.87568679 4.18588321 11.8125 4.25 C10.08966797 4.31960937 10.08966797 4.31960937 8.33203125 4.390625 C4.39646601 3.92924572 2.82254213 2.70028512 0 0 Z " fill="#9CDBF7" transform="translate(229,171)"/>
<path d="M0 0 C3.11227195 0 5.94152152 0.45627049 9 1 C7.625 2.5 7.625 2.5 6 4 C5.34 4 4.68 4 4 4 C4 4.66 4 5.32 4 6 C1.525 5.01 1.525 5.01 -1 4 C-0.67 2.68 -0.34 1.36 0 0 Z " fill="#68C7FB" transform="translate(340,153)"/>
<path d="M0 0 C0.99 0.33 1.98 0.66 3 1 C1.66511872 4.59391114 0.03977277 7.75490696 -2 11 C-3.06546953 7.8035914 -3.07427838 5.34252724 -3 2 C-2.34 2 -1.68 2 -1 2 C-0.67 1.34 -0.34 0.68 0 0 Z " fill="#78C8F5" transform="translate(197,74)"/>
<path d="M0 0 C-1.57967807 0.67528223 -3.16391903 1.33989694 -4.75 2 C-6.07257813 2.556875 -6.07257813 2.556875 -7.421875 3.125 C-10 4 -10 4 -14 4 C-14 3.34 -14 2.68 -14 2 C-9.27249283 -0.08566493 -5.03603003 -1.67867668 0 0 Z " fill="#A0D9F6" transform="translate(344,483)"/>
<path d="M0 0 C0.66 1.32 1.32 2.64 2 4 C1.34 3.67 0.68 3.34 0 3 C0 2.01 0 1.02 0 0 Z M-7 2 C-4.69 2.33 -2.38 2.66 0 3 C0 4.98 0 6.96 0 9 C-1.16959987 8.02433888 -2.33561177 7.044375 -3.5 6.0625 C-4.1496875 5.51722656 -4.799375 4.97195313 -5.46875 4.41015625 C-5.9740625 3.94480469 -6.479375 3.47945313 -7 3 C-7 2.67 -7 2.34 -7 2 Z " fill="#46B3F2" transform="translate(380,312)"/>
<path d="M0 0 C0 0.66 0 1.32 0 2 C0.66 2.33 1.32 2.66 2 3 C-3.28 2.34 -8.56 1.68 -14 1 C-14 0.67 -14 0.34 -14 0 C-9.02936879 -0.91297308 -4.97063121 -0.91297308 0 0 Z " fill="#81CCF2" transform="translate(260,212)"/>
<path d="M0 0 C0.33 0.66 0.66 1.32 1 2 C-2.09677419 8.42293907 -2.09677419 8.42293907 -5.25 10.4375 C-6.11625 10.7159375 -6.11625 10.7159375 -7 11 C-5.5140084 6.40693504 -3.14985318 3.56430755 0 0 Z " fill="#95D6F6" transform="translate(51,97)"/>
<path d="M0 0 C0.66 0 1.32 0 2 0 C1.36843005 5.05255964 -0.13459373 9.29593201 -2 14 C-2.66 13.67 -3.32 13.34 -4 13 C-4 12.34 -4 11.68 -4 11 C-3.34 11 -2.68 11 -2 11 C-2.04125 9.9275 -2.0825 8.855 -2.125 7.75 C-2.0114175 4.34252515 -1.78726636 2.79260369 0 0 Z " fill="#9CD9F5" transform="translate(192,85)"/>
<path d="M0 0 C8.57142857 -0.14285714 8.57142857 -0.14285714 12 1 C12 1.66 12 2.32 12 3 C13.32 3.66 14.64 4.32 16 5 C10.47293087 4.27275406 5.30039859 2.66554027 0 1 C0 0.67 0 0.34 0 0 Z " fill="#A0DDF8" transform="translate(260,51)"/>
<path d="M0 0 C-5.77874846 3.25711277 -10.37822074 4.69343615 -17 5 C-14.35029405 3.23352937 -11.98501901 2.02985003 -9.0625 0.8125 C-8.20785156 0.44769531 -7.35320312 0.08289063 -6.47265625 -0.29296875 C-3.81725523 -1.05225403 -2.55820275 -0.93187432 0 0 Z " fill="#A7DEF7" transform="translate(175,12)"/>
<path d="M0 0 C1.98 0 3.96 0 6 0 C6.33 0.66 6.66 1.32 7 2 C1.375 5 1.375 5 -2 5 C-2 4.01 -2 3.02 -2 2 C-1.34 2 -0.68 2 0 2 C0 1.34 0 0.68 0 0 Z " fill="#7BCBF3" transform="translate(363,469)"/>
<path d="M0 0 C1.34374179 4.03122538 0.4530301 6.05606115 -1 10 C-3.125 12.4375 -3.125 12.4375 -5 14 C-5.33 13.34 -5.66 12.68 -6 12 C-4.78515625 9.1796875 -4.78515625 9.1796875 -3.0625 5.875 C-2.49660156 4.77929688 -1.93070313 3.68359375 -1.34765625 2.5546875 C-0.90292969 1.71164063 -0.45820313 0.86859375 0 0 Z " fill="#A1DAF5" transform="translate(177,228)"/>
<path d="M0 0 C2.31 1.98 4.62 3.96 7 6 C6.34 6.66 5.68 7.32 5 8 C5 7.34 5 6.68 5 6 C3.02 6 1.04 6 -1 6 C-1.33 5.34 -1.66 4.68 -2 4 C-1.34 4 -0.68 4 0 4 C0 2.68 0 1.36 0 0 Z " fill="#73C9F4" transform="translate(427,73)"/>
<path d="M0 0 C0.66 0 1.32 0 2 0 C1.37321829 3.66172475 0.35548154 6.8818995 -1.0625 10.3125 C-1.42472656 11.19550781 -1.78695313 12.07851563 -2.16015625 12.98828125 C-2.43730469 13.65214844 -2.71445312 14.31601562 -3 15 C-4.09898702 11.70303895 -3.87124444 10.59505097 -3.0625 7.3125 C-2.86785156 6.50425781 -2.67320312 5.69601562 -2.47265625 4.86328125 C-2.31667969 4.24839844 -2.16070312 3.63351562 -2 3 C-1.34 3 -0.68 3 0 3 C0 2.01 0 1.02 0 0 Z " fill="#9EDCF8" transform="translate(275,329)"/>
<path d="M0 0 C0.33 0 0.66 0 1 0 C1 3.63 1 7.26 1 11 C0.01 11 -0.98 11 -2 11 C-1.85957123 9.35369672 -1.71250671 7.70795821 -1.5625 6.0625 C-1.48128906 5.14597656 -1.40007812 4.22945312 -1.31640625 3.28515625 C-1 1 -1 1 0 0 Z " fill="#59BAF1" transform="translate(179,224)"/>
<path d="M0 0 C0 0.99 0 1.98 0 3 C-0.66 3 -1.32 3 -2 3 C-2 4.98 -2 6.96 -2 9 C-2.66 9 -3.32 9 -4 9 C-4.33 9.99 -4.66 10.98 -5 12 C-5.3125 8.8125 -5.3125 8.8125 -5 5 C-2.5 2.0625 -2.5 2.0625 0 0 Z " fill="#6EC3F4" transform="translate(19,158)"/>
<path d="M0 0 C2.9375 0.375 2.9375 0.375 6 1 C6.33 1.66 6.66 2.32 7 3 C7.99 3.66 8.98 4.32 10 5 C8.3125 5.6875 8.3125 5.6875 6 6 C3.3125 4.75 3.3125 4.75 1 3 C0.67 2.01 0.34 1.02 0 0 Z " fill="#7ECAEF" transform="translate(126,466)"/>
<path d="M0 0 C0.66 0.33 1.32 0.66 2 1 C0.02 1.99 0.02 1.99 -2 3 C-2 3.66 -2 4.32 -2 5 C-2.66 5 -3.32 5 -4 5 C-4 5.66 -4 6.32 -4 7 C-6.31 7 -8.62 7 -11 7 C-8.99766723 4.99766723 -7.46399161 4.14342975 -4.9375 2.9375 C-2.27306757 1.74827237 -2.27306757 1.74827237 0 0 Z " fill="#98DAF6" transform="translate(203,412)"/>
<path d="M0 0 C2.67576692 1.00617682 3.7785108 1.54214546 5.046875 4.1640625 C5.27890625 4.97617187 5.5109375 5.78828125 5.75 6.625 C5.99234375 7.44226563 6.2346875 8.25953125 6.484375 9.1015625 C6.73960938 10.04128906 6.73960938 10.04128906 7 11 C4.35247996 8.42215154 2.05567935 6.08351902 0 3 C0 2.01 0 1.02 0 0 Z " fill="#8CD4F4" transform="translate(47,395)"/>
<path d="M0 0 C1.32 0.33 2.64 0.66 4 1 C4.12375 1.804375 4.2475 2.60875 4.375 3.4375 C4.684375 4.7059375 4.684375 4.7059375 5 6 C5.66 6.33 6.32 6.66 7 7 C7 8.32 7 9.64 7 11 C6.34 11 5.68 11 5 11 C4.16151196 9.54462432 3.32936066 8.08559627 2.5 6.625 C1.80390625 5.40683594 1.80390625 5.40683594 1.09375 4.1640625 C0 2 0 2 0 0 Z " fill="#98D9F6" transform="translate(30,370)"/>
<path d="M0 0 C1.98 0 3.96 0 6 0 C6.33 1.65 6.66 3.3 7 5 C2.25 4.125 2.25 4.125 0 3 C0 2.01 0 1.02 0 0 Z " fill="#5DC2F5" transform="translate(184,298)"/>
<path d="M0 0 C2.1926135 4.2186994 4.36894477 8.60185899 3.625 13.4375 C3.41875 13.953125 3.2125 14.46875 3 15 C3 14.01 3 13.02 3 12 C2.34 12 1.68 12 1 12 C-0.26237731 9.47524538 -0.09856404 7.68799534 -0.0625 4.875 C-0.05347656 3.96492187 -0.04445313 3.05484375 -0.03515625 2.1171875 C-0.02355469 1.41851562 -0.01195312 0.71984375 0 0 Z " fill="#A2DCF6" transform="translate(319,216)"/>
<path d="M0 0 C0.99 0 1.98 0 3 0 C2.71517632 1.41805831 2.42181856 2.83440379 2.125 4.25 C1.88136719 5.43335938 1.88136719 5.43335938 1.6328125 6.640625 C1.00849925 8.96831144 0.15161458 10.89031952 -1 13 C-1.0272415 11.58344207 -1.04650467 10.16672955 -1.0625 8.75 C-1.07410156 7.96109375 -1.08570313 7.1721875 -1.09765625 6.359375 C-1.00385306 4.09308998 -0.63241063 2.1711105 0 0 Z " fill="#95D4F5" transform="translate(59,184)"/>
<path d="M0 0 C3.96 1.32 7.92 2.64 12 4 C8.41220825 4.89694794 5.65381163 5.08304117 2 5 C1.34 3.35 0.68 1.7 0 0 Z " fill="#97D7F6" transform="translate(302,416)"/>
<path d="M0 0 C2.16321167 3.24481751 3.6314591 6.35055759 5 10 C4.67 10.99 4.34 11.98 4 13 C2 11.5625 2 11.5625 0 9 C-0.35442445 5.97175582 -0.23347235 3.03514061 0 0 Z " fill="#A9E0F8" transform="translate(109,376)"/>
<path d="M0 0 C0.33 0 0.66 0 1 0 C1.125 6.625 1.125 6.625 0 10 C-2.0625 11.1875 -2.0625 11.1875 -4 12 C-3.52309796 10.37433394 -3.04340334 8.74948689 -2.5625 7.125 C-2.29566406 6.22007812 -2.02882813 5.31515625 -1.75390625 4.3828125 C-1 2 -1 2 0 0 Z " fill="#99DBF5" transform="translate(390,377)"/>
<path d="M0 0 C1.23922223 3.71766668 0.57018942 5.43889537 -0.4375 9.1875 C-0.72496094 10.27417969 -1.01242188 11.36085938 -1.30859375 12.48046875 C-1.65083984 13.72763672 -1.65083984 13.72763672 -2 15 C-2.33 15 -2.66 15 -3 15 C-3.08142927 13.2507786 -3.13938541 11.50045458 -3.1875 9.75 C-3.22230469 8.77546875 -3.25710937 7.8009375 -3.29296875 6.796875 C-2.96075202 3.62531258 -2.11327721 2.32959693 0 0 Z " fill="#A6DFF8" transform="translate(111,337)"/>
<path d="M0 0 C0.66 0.33 1.32 0.66 2 1 C-0.21928194 3.90802461 -1.92969143 5.95312762 -5 8 C-6.32 7.67 -7.64 7.34 -9 7 C-6.03 4.69 -3.06 2.38 0 0 Z " fill="#A0DBF6" transform="translate(160,253)"/>
<path d="M0 0 C2.49505962 2.49505962 2.35948376 3.67328888 2.625 7.125 C2.69976562 8.03507813 2.77453125 8.94515625 2.8515625 9.8828125 C2.92503906 10.93082031 2.92503906 10.93082031 3 12 C2.01 12 1.02 12 0 12 C0 8.04 0 4.08 0 0 Z " fill="#8ED4F5" transform="translate(493,191)"/>
<path d="M0 0 C1.1446875 0.2475 1.1446875 0.2475 2.3125 0.5 C5.03596236 1.09145396 5.03596236 1.09145396 8 1 C8 2.65 8 4.3 8 6 C5 6 5 6 3.61328125 4.6875 C2.40885417 3.125 1.20442708 1.5625 0 0 Z " fill="#7ACFF8" transform="translate(422,161)"/>
<path d="M0 0 C1.50560497 2.85410334 2.63216796 5.68124642 3.625 8.75 C3.88539063 9.54921875 4.14578125 10.3484375 4.4140625 11.171875 C4.60742188 11.77515625 4.80078125 12.3784375 5 13 C0.17970402 9.14376321 0.17970402 9.14376321 -0.33203125 5.88671875 C-0.3145776 3.92143786 -0.16596091 1.95833873 0 0 Z " fill="#ABDFF5" transform="translate(190,128)"/>
<path d="M0 0 C0.33 0 0.66 0 1 0 C1.375 2.75 1.375 2.75 1 6 C-2 8.375 -2 8.375 -5 10 C-3.66654496 6.40992874 -2.1056769 3.20429093 0 0 Z " fill="#98D9F5" transform="translate(385,389)"/>
<path d="M0 0 C0 0.66 0 1.32 0 2 C-3.63 2.66 -7.26 3.32 -11 4 C-11 3.34 -11 2.68 -11 2 C-7.36576791 -0.32590854 -4.22911669 -0.16265833 0 0 Z " fill="#8AD0F3" transform="translate(320,299)"/>
<path d="M0 0 C3.35661695 1.67830848 4.32506861 4.70789347 6 8 C5.67 8.66 5.34 9.32 5 10 C2.5 8.9375 2.5 8.9375 0 7 C-0.3125 3.3125 -0.3125 3.3125 0 0 Z " fill="#A2DBF7" transform="translate(215,263)"/>
<path d="M0 0 C2 1 2 1 3 2 C3.66 2.33 4.32 2.66 5 3 C2.36 4.98 -0.28 6.96 -3 9 C-3 8.01 -3 7.02 -3 6 C-2.34 6 -1.68 6 -1 6 C-0.67 4.02 -0.34 2.04 0 0 Z " fill="#88D3F6" transform="translate(76,157)"/>
<path d="M0 0 C2.31 0 4.62 0 7 0 C4.77174356 2.22825644 3.34238372 2.69239369 0.375 3.625 C-0.44226563 3.88539063 -1.25953125 4.14578125 -2.1015625 4.4140625 C-2.72804688 4.60742188 -3.35453125 4.80078125 -4 5 C-3.67 4.01 -3.34 3.02 -3 2 C-2.01 2 -1.02 2 0 2 C0 1.34 0 0.68 0 0 Z " fill="#91D3F4" transform="translate(353,149)"/>
<path d="M0 0 C0.66 0 1.32 0 2 0 C1.52797514 4.24822374 -0.96655518 6.19989709 -4 9 C-4.33 8.01 -4.66 7.02 -5 6 C-2.6875 2.8125 -2.6875 2.8125 0 0 Z " fill="#81CCF5" transform="translate(72,72)"/>
<path d="M0 0 C0.33 0.99 0.66 1.98 1 3 C0.67 3.66 0.34 4.32 0 5 C0.66 5 1.32 5 2 5 C2.33 6.32 2.66 7.64 3 9 C2.34 8.67 1.68 8.34 1 8 C1 7.34 1 6.68 1 6 C0.38125 5.9175 -0.2375 5.835 -0.875 5.75 C-3 5 -3 5 -4.25 2.9375 C-4.62125 1.9784375 -4.62125 1.9784375 -5 1 C-3.35 0.67 -1.7 0.34 0 0 Z " fill="#68C2F6" transform="translate(301,70)"/>
<path d="M0 0 C0.66 0.33 1.32 0.66 2 1 C-0.33333333 3.33333333 -2.66666667 5.66666667 -5 8 C-6.32 7.67 -7.64 7.34 -9 7 C-6.03 4.69 -3.06 2.38 0 0 Z " fill="#A8E0F7" transform="translate(107,43)"/>
<path d="M0 0 C2.95183101 2.95183101 3.08663988 5.95511947 4 10 C3.01 10 2.02 10 1 10 C-0.60725635 6.78548731 -0.05748185 3.56387464 0 0 Z " fill="#96D7F6" transform="translate(271,378)"/>
<path d="M0 0 C0 0.66 0 1.32 0 2 C-0.66 2 -1.32 2 -2 2 C-2 2.66 -2 3.32 -2 4 C-6.455 4.495 -6.455 4.495 -11 5 C-7.72709962 2.33319229 -4.35126896 0 0 0 Z " fill="#A3DDF9" transform="translate(412,261)"/>
<path d="M0 0 C0.99552499 3.09718886 0.89921243 4.90271275 0 8 C0 8.99 0 9.98 0 11 C-1.98 11.99 -1.98 11.99 -4 13 C-3.52140759 11.39566191 -3.04210442 9.79153584 -2.5625 8.1875 C-2.29566406 7.29417969 -2.02882813 6.40085938 -1.75390625 5.48046875 C-1.19612127 3.64526945 -0.60655425 1.81966274 0 0 Z " fill="#A9E2FB" transform="translate(440,222)"/>
<path d="M0 0 C0 4.24645065 -1.81750806 6.38524772 -4 10 C-4.33 10 -4.66 10 -5 10 C-5 8.02 -5 6.04 -5 4 C-4.34 4 -3.68 4 -3 4 C-2.67 3.01 -2.34 2.02 -2 1 C-1.34 0.67 -0.68 0.34 0 0 Z " fill="#96D8F3" transform="translate(330,170)"/>
<path d="M0 0 C6.64615385 1.47692308 6.64615385 1.47692308 8.4375 4.125 C8.7159375 5.053125 8.7159375 5.053125 9 6 C5.06326356 4.68775452 2.77280706 3.08089673 0 0 Z " fill="#9DD9F5" transform="translate(102,452)"/>
<path d="M0 0 C3.7910119 1.44950455 7.3874638 3.15172566 11 5 C9.02 5.99 9.02 5.99 7 7 C7 6.34 7 5.68 7 5 C6.21625 4.9175 5.4325 4.835 4.625 4.75 C2 4 2 4 0.6875 1.9375 C0.460625 1.298125 0.23375 0.65875 0 0 Z " fill="#9AD5F5" transform="translate(134,412)"/>
<path d="M0 0 C0 4.38968456 -2.12805101 5.76905739 -5 9 C-5 6.16032769 -4.59732819 3.76264289 -4 1 C-2.68 0.67 -1.36 0.34 0 0 Z " fill="#99D9F3" transform="translate(447,403)"/>
<path d="M0 0 C3.93673644 1.31224548 6.22719294 2.91910327 9 6 C8.67 6.99 8.34 7.98 8 9 C4.86955476 6.9130365 4.54440417 6.18533361 3 3 C1.4587688 1.29078411 1.4587688 1.29078411 0 0 Z " fill="#75C5EF" transform="translate(205,309)"/>
<path d="M0 0 C0.99 0.33 1.98 0.66 3 1 C3 1.66 3 2.32 3 3 C4.65 3 6.3 3 8 3 C8 3.99 8 4.98 8 6 C4.08788267 4.84414715 1.1254959 3.64465038 -2 1 C-1.34 0.67 -0.68 0.34 0 0 Z " fill="#8ED6F7" transform="translate(145,149)"/>
<path d="M0 0 C1.95917659 0.0868748 3.91741871 0.19504512 5.875 0.3125 C7.51082031 0.39951172 7.51082031 0.39951172 9.1796875 0.48828125 C10.11039063 0.65714844 11.04109375 0.82601562 12 1 C12.66 1.99 13.32 2.98 14 4 C12.22773547 3.71715982 10.457212 3.42339502 8.6875 3.125 C7.20830078 2.88136719 7.20830078 2.88136719 5.69921875 2.6328125 C3 2 3 2 0 0 Z " fill="#BAE8FB" transform="translate(129,146)"/>
<path d="M0 0 C0.33 0 0.66 0 1 0 C1.08131463 1.43655854 1.13933559 2.8744483 1.1875 4.3125 C1.23970703 5.51326172 1.23970703 5.51326172 1.29296875 6.73828125 C0.93801608 9.47851584 0.10633718 10.29171079 -2 12 C-1.85904936 10.3745692 -1.71207913 8.74965949 -1.5625 7.125 C-1.48128906 6.22007813 -1.40007812 5.31515625 -1.31640625 4.3828125 C-1 2 -1 2 0 0 Z " fill="#57B6EC" transform="translate(312,120)"/>
<path d="M0 0 C4 4.625 4 4.625 4 8 C2.68 7.67 1.36 7.34 0 7 C0 4.69 0 2.38 0 0 Z " fill="#86D3F7" transform="translate(115,391)"/>
<path d="M0 0 C2.4375 0.75 2.4375 0.75 5 2 C5.8125 4.125 5.8125 4.125 6 6 C4.125 5.8125 4.125 5.8125 2 5 C0.75 2.4375 0.75 2.4375 0 0 Z " fill="#85D0F7" transform="translate(227,279)"/>
<path d="M0 0 C0.66 0.33 1.32 0.66 2 1 C1.2890625 2.953125 1.2890625 2.953125 0 5 C-2.1640625 5.609375 -2.1640625 5.609375 -4.625 5.75 C-5.44226563 5.80671875 -6.25953125 5.8634375 -7.1015625 5.921875 C-7.72804688 5.94765625 -8.35453125 5.9734375 -9 6 C-6.01353231 4.00902154 -3.40312738 3.05875074 0 2 C0 1.34 0 0.68 0 0 Z " fill="#58B9F0" transform="translate(278,167)"/>
<path d="M0 0 C0.33 0 0.66 0 1 0 C1 2.31 1 4.62 1 7 C0.01 7.33 -0.98 7.66 -2 8 C-2.66 8.66 -3.32 9.32 -4 10 C-3.29445932 6.33118845 -1.72264494 3.29549466 0 0 Z " fill="#9FDBF8" transform="translate(26,136)"/>
<path d="M0 0 C1.35015859 4.05047576 0.62084998 6.7920168 0 11 C-0.99 11.33 -1.98 11.66 -3 12 C-2.69106068 10.3743193 -2.3777305 8.74947252 -2.0625 7.125 C-1.88847656 6.22007812 -1.71445312 5.31515625 -1.53515625 4.3828125 C-1 2 -1 2 0 0 Z " fill="#AFE2F9" transform="translate(310,125)"/>
<path d="M0 0 C1.32 0 2.64 0 4 0 C4 0.99 4 1.98 4 3 C3.34 3 2.68 3 2 3 C1.87625 3.639375 1.7525 4.27875 1.625 4.9375 C1.41875 5.618125 1.2125 6.29875 1 7 C0.01 7.495 0.01 7.495 -1 8 C-0.67 5.36 -0.34 2.72 0 0 Z " fill="#9AD7F5" transform="translate(461,378)"/>
<path d="M0 0 C0 3.69418201 -1.28179295 5.77836178 -3 9 C-3.33 9 -3.66 9 -4 9 C-3.67 6.36 -3.34 3.72 -3 1 C-2.01 0.67 -1.02 0.34 0 0 Z " fill="#8FD5F8" transform="translate(117,326)"/>
<path d="M0 0 C0.99 0 1.98 0 3 0 C3.66 3.3 4.32 6.6 5 10 C2.327664 6.43688534 1.22736029 4.15414253 0 0 Z " fill="#B3E7F8" transform="translate(173,177)"/>
<path d="M0 0 C2.49505962 2.49505962 2.35948376 3.67328888 2.625 7.125 C2.69976562 8.03507813 2.77453125 8.94515625 2.8515625 9.8828125 C2.92503906 10.93082031 2.92503906 10.93082031 3 12 C2.34 12 1.68 12 1 12 C1 9.36 1 6.72 1 4 C0.34 4 -0.32 4 -1 4 C-0.67 2.68 -0.34 1.36 0 0 Z " fill="#6DC3F1" transform="translate(482,156)"/>
<path d="M0 0 C1.98 0.495 1.98 0.495 4 1 C4 1.66 4 2.32 4 3 C2.35 3.66 0.7 4.32 -1 5 C-0.67 3.35 -0.34 1.7 0 0 Z " fill="#6EC6F4" transform="translate(412,436)"/>
<path d="M0 0 C0.66 0 1.32 0 2 0 C1.45773019 3.79588866 -0.20127563 5.47211993 -3 8 C-3.66 7.67 -4.32 7.34 -5 7 C-3.625 5 -3.625 5 -2 3 C-1.34 3 -0.68 3 0 3 C0 2.01 0 1.02 0 0 Z " fill="#97D7F3" transform="translate(421,429)"/>
<path d="M0 0 C2.475 0.495 2.475 0.495 5 1 C5.33 2.98 5.66 4.96 6 7 C3.95880212 5.38405168 1.95927063 3.7143618 0 2 C0 1.34 0 0.68 0 0 Z " fill="#9DDBF8" transform="translate(59,412)"/>
<path d="M0 0 C0 3 0 3 -2.5 5.6875 C-3.325 6.450625 -4.15 7.21375 -5 8 C-4.75 5.125 -4.75 5.125 -4 2 C-1.9375 0.625 -1.9375 0.625 0 0 Z " fill="#A1DCF6" transform="translate(453,395)"/>
<path d="M0 0 C1 3 1 3 0.22265625 4.82421875 C-0.8515625 6.54947917 -1.92578125 8.27473958 -3 10 C-4 8 -4 8 -3.0625 4.875 C-2.5365625 3.451875 -2.5365625 3.451875 -2 2 C-1.34 2 -0.68 2 0 2 C0 1.34 0 0.68 0 0 Z " fill="#A2DCF5" transform="translate(473,361)"/>
<path d="M0 0 C1.32 0.33 2.64 0.66 4 1 C4.66 3.64 5.32 6.28 6 9 C3.49962266 6.82575883 2.56371414 5.26954202 2 2 C1.34 2 0.68 2 0 2 C0 1.34 0 0.68 0 0 Z " fill="#9ADAF7" transform="translate(380,323)"/>
<path d="M0 0 C0.99 0.33 1.98 0.66 3 1 C2.01 2.98 1.02 4.96 0 7 C-0.33 7 -0.66 7 -1 7 C-1.33 5.02 -1.66 3.04 -2 1 C-1.34 0.67 -0.68 0.34 0 0 Z " fill="#72C6F5" transform="translate(278,323)"/>
<path d="M0 0 C3.37503669 1.1858237 5.64722731 2.27573689 8 5 C6.35 5 4.7 5 3 5 C3 4.34 3 3.68 3 3 C2.34 3 1.68 3 1 3 C0.67 2.01 0.34 1.02 0 0 Z " fill="#9ADAF6" transform="translate(83,258)"/>
<path d="M0 0 C1.32 0 2.64 0 4 0 C4 0.66 4 1.32 4 2 C2.03533587 3.06775224 0.03144641 4.06553465 -2 5 C-2.66 4.67 -3.32 4.34 -4 4 C-3.67 3.34 -3.34 2.68 -3 2 C-2.01 2 -1.02 2 0 2 C0 1.34 0 0.68 0 0 Z " fill="#8BD5F4" transform="translate(92,149)"/>
<path d="M0 0 C0 3.61537605 -0.89229241 5.11165997 -3 8 C-3.99 8 -4.98 8 -6 8 C-5.67 7.01 -5.34 6.02 -5 5 C-4.34 5 -3.68 5 -3 5 C-2.5359375 4.0409375 -2.5359375 4.0409375 -2.0625 3.0625 C-1 1 -1 1 0 0 Z " fill="#9FDDF7" transform="translate(66,79)"/>
<path d="M0 0 C3.36720387 1.39332574 4.9859524 2.9789286 7 6 C4.625 5.8125 4.625 5.8125 2 5 C0.6875 2.4375 0.6875 2.4375 0 0 Z " fill="#8FD5F4" transform="translate(416,63)"/>
<path d="M0 0 C6.625 -0.125 6.625 -0.125 10 1 C9.67 1.66 9.34 2.32 9 3 C8.01 3 7.02 3 6 3 C6 2.34 6 1.68 6 1 C4.02 1.66 2.04 2.32 0 3 C0 2.01 0 1.02 0 0 Z " fill="#6AC7F7" transform="translate(371,34)"/>
<path d="M0 0 C0.66 0.33 1.32 0.66 2 1 C0.25 3.0625 0.25 3.0625 -2 5 C-4.25 4.75 -4.25 4.75 -6 4 C-4.02 2.68 -2.04 1.36 0 0 Z " fill="#9BD9F4" transform="translate(364,412)"/>
<path d="M0 0 C0.66 0 1.32 0 2 0 C0.25 5.75 0.25 5.75 -2 8 C-1.125 1.125 -1.125 1.125 0 0 Z " fill="#4CB4F2" transform="translate(271,336)"/>
<path d="M0 0 C-1.125 1.5625 -1.125 1.5625 -3 3 C-6.1875 2.6875 -6.1875 2.6875 -9 2 C-5.86501708 0.14223235 -3.62528568 -0.20140476 0 0 Z " fill="#47B2F0" transform="translate(269,212)"/>
<path d="M0 0 C1.32 0.33 2.64 0.66 4 1 C4.66 3.64 5.32 6.28 6 9 C3.72494996 6.83328568 1.76424908 4.60436769 0 2 C0 1.34 0 0.68 0 0 Z " fill="#B1E3F9" transform="translate(429,168)"/>
<path d="M0 0 C1.875 0.625 1.875 0.625 4 2 C5.25 5.125 5.25 5.125 6 8 C5.34 8 4.68 8 4 8 C0 2.58823529 0 2.58823529 0 0 Z " fill="#7FCCEE" transform="translate(192,139)"/>
<path d="M0 0 C2.79872437 2.52788007 4.45773019 4.20411134 5 8 C4.01 7.67 3.02 7.34 2 7 C0.8125 3.4375 0.8125 3.4375 0 0 Z " fill="#9DD8F5" transform="translate(458,111)"/>
<path d="M0 0 C-4.95 1.485 -4.95 1.485 -10 3 C-10 2.01 -10 1.02 -10 0 C-6.05523353 -0.80688405 -4.00001715 -1.00000429 0 0 Z " fill="#A2DCF7" transform="translate(230,55)"/>
</svg>
